<svg width="10" height="16" viewBox="0 0 10 16" fill="none" xmlns="http://www.w3.org/2000/svg">
<path d="M2.95833 7.99997L9.08333 14.125C9.29167 14.3333 9.39236 14.5764 9.38542 14.8541C9.37847 15.1319 9.27083 15.375 9.0625 15.5833C8.85417 15.7916 8.61111 15.8958 8.33333 15.8958C8.05556 15.8958 7.8125 15.7916 7.60417 15.5833L1.1875 9.18747C1.02083 9.0208 0.895833 8.8333 0.8125 8.62497C0.729167 8.41664 0.6875 8.2083 0.6875 7.99997C0.6875 7.79164 0.729167 7.5833 0.8125 7.37497C0.895833 7.16664 1.02083 6.97914 1.1875 6.81247L7.60417 0.395803C7.8125 0.18747 8.05903 0.0867754 8.34375 0.0937198C8.62847 0.100664 8.875 0.208303 9.08333 0.416636C9.29167 0.62497 9.39583 0.868025 9.39583 1.1458C9.39583 1.42358 9.29167 1.66664 9.08333 1.87497L2.95833 7.99997Z" fill="#03627C"/>
</svg>
