<svg width="33" height="29" viewBox="0 0 33 29" fill="none" xmlns="http://www.w3.org/2000/svg">
<g clip-path="url(#clip0_1189_3825)">
<mask id="path-1-outside-1_1189_3825" maskUnits="userSpaceOnUse" x="-0.358398" y="-0.608643" width="33" height="27" fill="black">
<rect fill="white" x="-0.358398" y="-0.608643" width="33" height="27"/>
<path d="M5.58117 4.70799L5.57888 2.09105L5.57882 2.08605H5.57888C5.57723 2.01791 5.57399 1.97147 5.56918 1.93655L5.56906 1.93574L5.56918 1.93572C5.56261 1.8881 5.55277 1.85521 5.54016 1.82358C5.49185 1.70251 5.40754 1.62901 5.31519 1.58723C5.19633 1.53348 5.05988 1.5386 4.98299 1.56024C4.31442 1.74846 3.81401 1.62541 3.32762 1.50581C2.85595 1.38983 2.3961 1.27675 1.80577 1.40513C1.70489 1.42707 1.6146 1.49343 1.55107 1.57696C1.48816 1.65968 1.44777 1.7649 1.44777 1.86282V2.96284C1.44777 2.96754 1.44794 2.97219 1.44824 2.97681C1.44425 3.25968 1.51637 3.41472 1.65354 3.5059C1.78587 3.59385 1.93343 3.59032 2.11835 3.57934C2.48087 3.5578 2.82205 3.63019 3.17036 3.70409C3.75371 3.82787 4.35547 3.95546 5.1553 3.71392L5.15617 4.70669L5.09578 4.70938C5.07636 4.70975 5.05667 4.7128 5.03719 4.71879C4.98089 4.73607 4.92292 4.76594 4.86767 4.80432C4.77013 4.87207 4.66883 4.9751 4.59791 5.08296C4.50998 5.21667 4.46451 5.3674 4.50584 5.50207C4.51625 5.53605 4.53121 5.56761 4.55113 5.59628L4.74008 5.86831C4.6278 5.92131 4.51257 5.99499 4.4208 6.07355C4.34676 6.13693 4.28377 6.20631 4.24291 6.27533C4.17886 6.38351 4.16131 6.49585 4.21153 6.60391C4.2349 6.65413 4.27117 6.69762 4.3221 6.73269L4.53585 6.87986C4.41026 6.93957 4.30167 7.01694 4.20881 7.10327C4.00289 7.29472 3.87459 7.53271 3.81105 7.71577C3.77668 7.81476 3.75091 7.90661 3.75567 8.00161C3.08391 8.61847 2.591 9.40041 2.23002 10.2348C1.74908 11.3464 1.50367 12.5479 1.38108 13.5705C1.37072 13.657 1.35143 13.8684 1.33385 14.0613L1.32159 14.1952C1.32053 14.2014 1.31973 14.2078 1.31923 14.2142C1.30369 14.407 1.32525 14.5604 1.37484 14.6881C1.42817 14.8255 1.51003 14.9267 1.61128 15.0097C2.06906 15.3848 2.94719 15.365 3.27279 15.3516V16.9262H2.33838V15.8693C2.33838 15.7515 2.24287 15.656 2.12505 15.656C2.00723 15.656 1.91171 15.7515 1.91171 15.8693V16.9262H1.06827V15.8693C1.06827 15.7515 0.972754 15.656 0.854935 15.656C0.737116 15.656 0.641602 15.7515 0.641602 15.8693V17.1395C0.641602 17.2573 0.737116 17.3529 0.854935 17.3529H3.27279V18.0278L1.17949 18.0271C1.06213 18.0271 0.966988 18.1223 0.966988 18.2396C0.966988 18.357 1.06213 18.4521 1.17949 18.4521L3.47902 18.4528L3.48612 18.453L3.49311 18.4528L10.0499 18.4548V19.3736L1.17288 19.3627C1.05552 19.3627 0.96038 19.4578 0.96038 19.5752C0.96038 19.6926 1.05552 19.7877 1.17288 19.7877L10.2123 19.7988C10.2286 19.8028 10.2457 19.805 10.2633 19.805H13.6503V20.8837H10.2633C10.1455 20.8837 10.0499 20.9792 10.0499 21.097C10.0499 21.2148 10.1455 21.3103 10.2633 21.3103H22.7404C22.8583 21.3103 22.9538 21.2148 22.9538 21.097C22.9538 20.9792 22.8583 20.8837 22.7404 20.8837H19.2136V19.805H22.7404C22.758 19.805 22.7751 19.8028 22.7915 19.7988L31.8271 19.7877C31.9445 19.7877 32.0396 19.6926 32.0396 19.5752C32.0396 19.4578 31.9445 19.3627 31.8271 19.3627L22.9527 19.3736L22.9517 18.4419L25.7022 18.445C25.7206 18.4502 25.74 18.453 25.76 18.453C25.7798 18.453 25.799 18.4502 25.8173 18.4452L29.475 18.4494C29.4876 18.4517 29.5006 18.453 29.5139 18.453C29.527 18.453 29.5398 18.4518 29.5523 18.4495L31.8205 18.4521C31.9379 18.4521 32.033 18.357 32.033 18.2396C32.033 18.1223 31.9379 18.0271 31.8205 18.0271L29.7272 18.0247V17.3529H32.1451C32.2629 17.3529 32.3584 17.2573 32.3584 17.1395V15.8693C32.3584 15.7515 32.2629 15.656 32.1451 15.656C32.0273 15.656 31.9317 15.7515 31.9317 15.8693V16.9262H31.0883V15.8693C31.0883 15.7515 30.9928 15.656 30.875 15.656C30.7571 15.656 30.6616 15.7515 30.6616 15.8693V16.9262H29.7272V15.3516C30.0528 15.365 30.9309 15.3848 31.3887 15.0097C31.49 14.9267 31.5718 14.8255 31.6252 14.6881C31.6748 14.5604 31.6963 14.407 31.6808 14.2142C31.6803 14.2078 31.6795 14.2014 31.6784 14.1952L31.6662 14.0613C31.6486 13.8684 31.6293 13.657 31.6189 13.5705C31.4963 12.5479 31.2509 11.3464 30.77 10.2348C30.409 9.40041 29.9161 8.61847 29.2443 8.00161C29.2491 7.90661 29.2233 7.81476 29.189 7.71577C29.1254 7.53271 28.9971 7.29472 28.7912 7.10327C28.6983 7.01694 28.5897 6.93957 28.4642 6.87986L28.6779 6.73269C28.7288 6.69762 28.7651 6.65413 28.7885 6.60391C28.8387 6.49585 28.8211 6.38351 28.7571 6.27533C28.7162 6.20631 28.6532 6.13693 28.5792 6.07355C28.4874 5.99499 28.3722 5.92131 28.2599 5.86831L28.4489 5.59628C28.4688 5.56761 28.4838 5.53605 28.4942 5.50207C28.5355 5.3674 28.49 5.21667 28.4021 5.08296C28.3312 4.9751 28.2299 4.87207 28.1323 4.80432C28.0771 4.76594 28.0191 4.73607 27.9628 4.71879C27.9433 4.7128 27.9236 4.70975 27.9042 4.70938L27.8438 4.70669L27.8447 3.71392C28.6445 3.95546 29.2463 3.82787 29.8296 3.70409C30.1779 3.63019 30.5191 3.5578 30.8817 3.57934C31.0666 3.59032 31.2141 3.59385 31.3465 3.5059C31.4836 3.41472 31.5558 3.25968 31.5518 2.97681C31.5521 2.97219 31.5522 2.96754 31.5522 2.96284V1.86282C31.5522 1.7649 31.5118 1.65968 31.4489 1.57696C31.3854 1.49343 31.2951 1.42707 31.1942 1.40513C30.6039 1.27675 30.1441 1.38983 29.6724 1.50581C29.186 1.62541 28.6856 1.74846 28.017 1.56024C27.9401 1.5386 27.8037 1.53348 27.6848 1.58723C27.5925 1.62901 27.5082 1.70251 27.4598 1.82358C27.4472 1.85521 27.4374 1.8881 27.4308 1.93572L27.4309 1.93574L27.4308 1.93655C27.426 1.97147 27.4228 2.01791 27.4211 2.08605H27.4212L27.4211 2.09105L27.4188 4.70799L27.3823 4.70962C27.362 4.71049 27.3425 4.71418 27.3241 4.7203C27.2588 4.7412 27.189 4.78073 27.123 4.83156C27.0313 4.90215 26.9395 5.0003 26.8762 5.10072C26.7955 5.22884 26.7556 5.37078 26.7949 5.49887C26.8064 5.53652 26.8244 5.57196 26.8495 5.60461L27.0471 5.86123C26.93 5.91464 26.8085 5.99143 26.7126 6.07355C26.6385 6.13693 26.5755 6.20631 26.5347 6.27533C26.4706 6.38351 26.4531 6.49585 26.5033 6.60391C26.5267 6.65413 26.5629 6.69762 26.6139 6.73269L26.8071 6.86573C26.6356 6.94156 26.495 7.04955 26.3822 7.1693C26.2149 7.34674 26.1073 7.55283 26.0508 7.71577C26.0124 7.82629 25.9847 7.92796 25.9983 8.03538C25.9987 8.03841 25.9991 8.04142 25.9996 8.0444C26.0007 8.05167 26.0019 8.05886 26.0033 8.06597C25.3746 8.648 24.9168 9.36337 24.5779 10.13C24.227 10.9238 24.0043 11.7731 23.8516 12.5844C23.8324 12.6861 23.8139 12.7918 23.7926 12.9276C23.7728 13.0543 23.7522 13.1981 23.7284 13.3784C23.7273 13.3841 23.7263 13.39 23.7256 13.3959C23.6963 13.6437 23.6717 13.9121 23.6524 14.1221L23.6457 14.1952C23.6446 14.2014 23.6438 14.2077 23.6433 14.2142C23.6278 14.407 23.6494 14.5604 23.6989 14.6881C23.7523 14.8255 23.8341 14.9267 23.9354 15.0097C24.3714 15.3669 25.1885 15.366 25.5467 15.3535V16.9262H24.5101V15.8693C24.5101 15.7515 24.4146 15.656 24.2968 15.656C24.179 15.656 24.0834 15.7515 24.0834 15.8693V16.9262H23.24V15.8693C23.24 15.7515 23.1445 15.656 23.0267 15.656C22.9088 15.656 22.8133 15.7515 22.8133 15.8693V17.1395C22.8133 17.2573 22.9088 17.3529 23.0267 17.3529H25.5467V18.0199L22.7389 18.0166C22.6216 18.0166 22.5264 18.1117 22.5264 18.2291L22.5277 19.3742L21.2158 19.3758V17.8536C21.2158 17.7357 21.1203 17.6402 21.0025 17.6402C20.8847 17.6402 20.7892 17.7357 20.7892 17.8536V19.3763L20.3672 19.3768C20.3586 19.3768 20.3502 19.3773 20.3419 19.3783H19.2136V17.0663C19.6409 17.0843 20.837 17.1166 21.4473 16.6165C21.5761 16.5109 21.6801 16.3826 21.7475 16.2091C21.8111 16.0452 21.8386 15.8466 21.8184 15.5949C21.8179 15.5885 21.8171 15.5822 21.816 15.5759L21.8062 15.4699C21.7803 15.1867 21.747 14.8248 21.706 14.4783C21.7053 14.4724 21.7044 14.4665 21.7032 14.4608C21.6704 14.2111 21.6421 14.0134 21.615 13.8403C21.5865 13.6582 21.5612 13.5138 21.5347 13.3731C21.3266 12.2683 21.0235 11.1121 20.546 10.0318C20.0803 8.97831 19.4494 7.99658 18.5805 7.20262C18.5878 7.17707 18.5932 7.15064 18.5966 7.12336C18.6131 6.99264 18.5775 6.86356 18.5284 6.72215C18.454 6.50782 18.3124 6.23658 18.0919 6.00262C17.9211 5.82143 17.7023 5.6609 17.4292 5.56232C17.4201 5.55902 17.4109 5.55578 17.4016 5.55263L17.7874 5.28701C17.845 5.24732 17.8859 5.19851 17.912 5.1424C17.9686 5.02064 17.9473 4.89155 17.8727 4.76555C17.8213 4.67872 17.7409 4.59045 17.6459 4.50909C17.4938 4.37894 17.2937 4.25921 17.115 4.19179L17.4474 3.75998C17.4758 3.72303 17.4962 3.68285 17.5093 3.64014C17.5556 3.48922 17.5058 3.3175 17.4066 3.16011C17.3249 3.03043 17.2061 2.90351 17.0874 2.81208C17.0035 2.74754 16.9158 2.69771 16.8349 2.67206L16.8341 2.67178C16.816 2.6659 16.7969 2.66233 16.7771 2.66148L16.6522 2.65591L16.6504 0.603859C16.6504 0.486499 16.5553 0.391357 16.4379 0.391357C16.3206 0.391357 16.2254 0.486499 16.2254 0.603859L16.2272 2.65413L16.0677 2.66125C16.0483 2.66161 16.0286 2.66466 16.0091 2.67065C15.9403 2.69176 15.8684 2.72902 15.7989 2.77725C15.6727 2.86493 15.5418 2.99797 15.4504 3.13704C15.3419 3.30196 15.285 3.48512 15.3339 3.64453C15.3457 3.68309 15.3627 3.71898 15.3854 3.75165L15.6982 4.202C15.5264 4.27089 15.3382 4.38526 15.1936 4.50909C15.0985 4.59045 15.0182 4.67872 14.9668 4.76555C14.8922 4.89155 14.8709 5.02063 14.9275 5.1424C14.9536 5.19851 14.9945 5.24732 15.0521 5.28701L15.462 5.56924C15.2424 5.65147 15.0581 5.7745 14.906 5.91597C14.6347 6.16813 14.4659 6.4813 14.3823 6.72215C14.3336 6.86234 14.2983 6.99041 14.3137 7.11998C13.3887 7.96005 12.7115 9.03085 12.2167 10.1746C11.5624 11.6869 11.2283 13.3236 11.0612 14.7171C11.0462 14.8424 11.0202 15.1271 10.9966 15.3867L10.9792 15.5759C10.9782 15.5821 10.9774 15.5885 10.9769 15.5949C10.9566 15.8466 10.9841 16.0452 11.0477 16.2091C11.1151 16.3826 11.2191 16.5109 11.3479 16.6165C11.9825 17.1365 13.2507 17.0809 13.6291 17.0643L13.6503 17.0634V19.3783H12.6581C12.6498 19.3773 12.6414 19.3768 12.6328 19.3768L12.2146 19.3763V17.8536C12.2146 17.7357 12.1191 17.6402 12.0012 17.6402C11.8834 17.6402 11.7879 17.7357 11.7879 17.8536V19.3758L10.4766 19.3742V18.2424H10.4758C10.4758 18.125 10.3806 18.0299 10.2633 18.0299L7.45334 18.029V17.3529H9.97334C10.0912 17.3529 10.1867 17.2573 10.1867 17.1395V15.8693C10.1867 15.7515 10.0912 15.656 9.97334 15.656C9.85552 15.656 9.76 15.7515 9.76 15.8693V16.9262H8.91656V15.8693C8.91656 15.7515 8.82104 15.656 8.70322 15.656C8.5854 15.656 8.48989 15.7515 8.48989 15.8693V16.9262H7.45334V15.3535C7.81148 15.366 8.62865 15.3669 9.06462 15.0097C9.16586 14.9267 9.24772 14.8255 9.30106 14.6881C9.35065 14.5604 9.3722 14.407 9.35667 14.2142C9.35616 14.2077 9.35536 14.2014 9.35431 14.1952L9.34759 14.1221C9.32832 13.9121 9.30369 13.6437 9.27437 13.3959C9.27367 13.39 9.27272 13.3841 9.27156 13.3784C9.24783 13.1981 9.22722 13.0543 9.20738 12.9276C9.18612 12.7918 9.16759 12.6861 9.14845 12.5844C8.99567 11.7731 8.77298 10.9238 8.4221 10.13C8.08324 9.36337 7.62537 8.648 6.99672 8.06597C6.9981 8.05886 6.99931 8.05167 7.00038 8.0444C7.00088 8.04142 7.00134 8.03841 7.00172 8.03538C7.01526 7.92796 6.98759 7.82629 6.94923 7.71577C6.89267 7.55283 6.78514 7.34674 6.61785 7.1693C6.50498 7.04955 6.3644 6.94156 6.19292 6.86573L6.38614 6.73269C6.43707 6.69762 6.47335 6.65413 6.49671 6.60391C6.54693 6.49585 6.52939 6.38351 6.46533 6.27533C6.42447 6.20631 6.36147 6.13693 6.28744 6.07355C6.19151 5.99143 6.06996 5.91464 5.95293 5.86123L6.15045 5.60461C6.17559 5.57196 6.19359 5.53652 6.20514 5.49887C6.24444 5.37078 6.20454 5.22884 6.12379 5.10072C6.06051 5.0003 5.96871 4.90215 5.87699 4.83156C5.81096 4.78073 5.7412 4.7412 5.67588 4.7203C5.65752 4.71418 5.63802 4.71049 5.61773 4.70962L5.58117 4.70799ZM5.15388 2.09606L5.15491 3.26722C4.39539 3.52855 3.81774 3.40605 3.25869 3.28742C2.88236 3.20758 2.51373 3.12936 2.09335 3.15434C1.98916 3.16053 1.90897 3.16448 1.88854 3.1509C1.87661 3.14297 1.871 3.09679 1.87319 2.98586C1.874 2.9783 1.87443 2.97062 1.87443 2.96284V1.86282C1.87443 1.85663 1.88029 1.84562 1.88941 1.83363C1.89511 1.82615 1.89364 1.82226 1.89578 1.8218C2.3916 1.71398 2.80348 1.81526 3.22596 1.91914C3.76623 2.05199 4.3221 2.18867 5.09799 1.97025C5.10658 1.96783 5.12324 1.9679 5.14019 1.97557C5.14237 1.97655 5.14429 1.97807 5.14516 1.98025C5.14558 1.98129 5.1462 1.98451 5.14752 1.99406L5.14763 1.99404C5.15063 2.01623 5.15271 2.04784 5.15388 2.09606ZM7.02667 18.0289L3.69945 18.0279V17.3529H7.02667V18.0289ZM14.077 19.805H18.787V20.8837H14.077V19.805ZM18.787 19.3783H17.9569V17.8536C17.9569 17.7357 17.8613 17.6402 17.7435 17.6402C17.6257 17.6402 17.5302 17.7357 17.5302 17.8536V19.3783H15.4735V17.8536C15.4735 17.7357 15.378 17.6402 15.2602 17.6402C15.1424 17.6402 15.0469 17.7357 15.0469 17.8536V19.3783H14.077V15.3059C14.077 14.8586 14.2871 14.5048 14.6176 14.2454L15.0065 14.0163C15.0192 14.0089 15.0308 14.0003 15.0414 13.9908C15.1669 13.9333 15.3006 13.8846 15.4398 13.8449C15.7517 13.756 16.0913 13.7115 16.432 13.7115C16.7726 13.7115 17.1123 13.756 17.4241 13.8449C17.5634 13.8846 17.697 13.9333 17.8226 13.9909C17.8331 14.0003 17.8448 14.0089 17.8575 14.0163L18.2463 14.2454C18.5768 14.5048 18.787 14.8585 18.787 15.3059V19.3783ZM29.3006 18.0242L25.9733 18.0204V17.3529H29.3006V18.0242ZM4.35024 13.1144C4.35984 13.1088 4.36884 13.1025 4.3772 13.0957C4.46439 13.0561 4.55712 13.0225 4.65368 12.9949C4.87637 12.9314 5.11921 12.8997 5.36306 12.8997C5.60691 12.8997 5.84975 12.9314 6.07244 12.9949C6.169 13.0225 6.26173 13.0561 6.34891 13.0957C6.35728 13.1025 6.36628 13.1087 6.37588 13.1144L6.65317 13.2777C6.88168 13.4574 7.02667 13.7008 7.02667 14.0075V16.9262H6.53488V15.8693C6.53488 15.7515 6.43937 15.656 6.32155 15.656C6.20373 15.656 6.10822 15.7515 6.10822 15.8693V16.9262H4.72005V15.8693C4.72005 15.7515 4.62453 15.656 4.50672 15.656C4.3889 15.656 4.29338 15.7515 4.29338 15.8693V16.9262H3.69945V14.0075C3.69945 13.7008 3.84445 13.4574 4.07295 13.2777L4.35024 13.1144ZM3.80573 12.9418L2.98593 13.4248C3.06715 12.66 3.19349 11.8169 3.38627 11.0063C3.61336 10.0515 3.9314 9.1466 4.37418 8.48101C4.44483 8.49687 4.52068 8.51098 4.60085 8.52311C4.82882 8.55761 5.09581 8.57751 5.38014 8.57751C5.66445 8.57751 5.93146 8.55761 6.15943 8.52311C6.21379 8.51489 6.26616 8.50575 6.31628 8.49577C6.75196 9.14937 7.06151 9.97231 7.28099 10.832C7.50228 11.6988 7.63167 12.6 7.70636 13.4049L6.9204 12.9418C6.71535 12.7822 6.46387 12.6633 6.18911 12.5849C5.92747 12.5103 5.64475 12.473 5.36306 12.473C5.08137 12.473 4.79865 12.5103 4.53701 12.5849C4.26225 12.6633 4.0108 12.7822 3.80573 12.9418ZM2.93606 13.9475L3.29938 13.7334C3.28197 13.8203 3.27279 13.9116 3.27279 14.0075V14.9258C3.18305 14.9297 3.03818 14.9348 2.87201 14.9299C2.88524 14.637 2.90572 14.3051 2.93606 13.9475ZM7.45334 14.0075C7.45334 13.9116 7.44415 13.8203 7.42675 13.7334L7.74827 13.9229C7.75898 14.0776 7.76776 14.2272 7.7749 14.3704C7.778 14.4327 7.78819 14.5656 7.79884 14.7046C7.80481 14.7826 7.81093 14.8625 7.81595 14.9296C7.67306 14.9342 7.54519 14.9312 7.45334 14.9278V14.0075ZM5.36095 9.88178C5.15359 9.88178 4.96207 9.93896 4.82008 10.0314C4.65107 10.1414 4.54653 10.3018 4.54653 10.4864C4.54653 10.671 4.65107 10.8314 4.82008 10.9414C4.96207 11.0338 5.15359 11.091 5.36095 11.091C5.56831 11.091 5.75982 11.0338 5.90181 10.9414C6.07082 10.8314 6.17537 10.671 6.17537 10.4864C6.17537 10.3018 6.07082 10.1414 5.90181 10.0314C5.75982 9.93895 5.56831 9.88178 5.36095 9.88178ZM5.05175 10.3881C5.1273 10.3389 5.23634 10.3085 5.36095 10.3085C5.48554 10.3085 5.59459 10.3389 5.67015 10.3881C5.71867 10.4196 5.7487 10.4549 5.7487 10.4864C5.7487 10.5179 5.71867 10.5531 5.67015 10.5847C5.59459 10.6339 5.48554 10.6643 5.36095 10.6643C5.23634 10.6643 5.1273 10.6339 5.05175 10.5847C5.00322 10.5531 4.9732 10.5179 4.9732 10.4864C4.9732 10.4549 5.00322 10.4196 5.05175 10.3881ZM8.79461 14.6797C8.65824 14.7914 8.45401 14.855 8.24026 14.8904C8.23536 14.8233 8.22953 14.7473 8.22384 14.6729C8.21234 14.5228 8.20135 14.3793 8.19991 14.3504C8.14897 13.329 8.0172 11.9917 7.69433 10.727C7.48708 9.91528 7.2008 9.13106 6.80627 8.47334C7.33794 8.99482 7.73346 9.62603 8.03209 10.3017C8.36869 11.0632 8.58284 11.8807 8.73011 12.6627C8.75082 12.7728 8.76928 12.877 8.78738 12.9926C8.80586 13.1107 8.8259 13.251 8.84996 13.4339C8.8502 13.4379 8.85056 13.4419 8.85103 13.4459C8.88512 13.734 8.90708 13.9732 8.92425 14.1604L8.93105 14.2344C8.93113 14.2388 8.93132 14.2431 8.93167 14.2475C8.94186 14.374 8.93105 14.4662 8.90439 14.5348C8.88147 14.5938 8.84317 14.6399 8.79461 14.6797ZM2.44801 14.8925C2.22979 14.8575 2.02029 14.7936 1.88128 14.6797C1.83272 14.6399 1.79442 14.5938 1.77151 14.5348C1.74485 14.4662 1.73403 14.3741 1.74423 14.2475C1.74458 14.2431 1.74477 14.2387 1.74484 14.2344L1.75719 14.0996C1.77265 13.93 1.78959 13.7442 1.80442 13.6205C1.92332 12.6286 2.15959 11.4673 2.62002 10.4031C2.92718 9.69316 3.33475 9.02502 3.87489 8.47856C3.47523 9.16076 3.18333 10.0163 2.97128 10.9079C2.63367 12.3275 2.49595 13.8483 2.44801 14.8925ZM5.1097 6.75859L4.64954 6.44175C4.66342 6.42727 4.6796 6.41219 4.69747 6.39689C4.79405 6.31422 4.92039 6.24124 5.01365 6.21699L5.35412 6.20654L5.69459 6.21699C5.78786 6.24124 5.91419 6.31422 6.01076 6.39689C6.02864 6.4122 6.04481 6.42728 6.0587 6.44175L5.59851 6.75862C5.53492 6.7568 5.4628 6.75586 5.38014 6.75586C5.26727 6.75586 5.17996 6.75679 5.1097 6.75859ZM5.34828 5.78135L5.20184 5.78585L4.91508 5.37303C4.92068 5.36463 4.93487 5.34372 4.9529 5.31629C4.99343 5.25466 5.05285 5.19472 5.11101 5.15432C5.12387 5.14539 5.13537 5.13816 5.14503 5.13301L5.35412 5.12369L5.56393 5.13304C5.57894 5.14079 5.59708 5.15291 5.61699 5.16823C5.67225 5.21076 5.7269 5.26886 5.76379 5.32738C5.77768 5.34942 5.79008 5.36164 5.79556 5.36829L5.4749 5.78488L5.35995 5.78135C5.35609 5.78126 5.3522 5.78125 5.34828 5.78135ZM5.38014 8.15085C5.11632 8.15085 4.8712 8.13277 4.66419 8.10145C4.45956 8.07048 4.29699 8.02818 4.19673 7.97942C4.18363 7.97305 4.18111 7.98917 4.18021 7.98205L4.17998 7.9804C4.17848 7.95703 4.19328 7.91009 4.21271 7.8541C4.25805 7.72348 4.35017 7.55314 4.49881 7.41494C4.60486 7.31635 4.73981 7.23539 4.90674 7.20079C4.93339 7.19526 4.96205 7.19092 5.02292 7.18769C5.08679 7.18431 5.19364 7.18253 5.38014 7.18253C5.58573 7.18253 5.71516 7.18785 5.80349 7.19768C5.88255 7.20648 5.92728 7.2183 5.96783 7.23294C6.10575 7.28273 6.21843 7.3661 6.30785 7.46097C6.42976 7.59028 6.50729 7.73806 6.54756 7.8541C6.56767 7.91202 6.58282 7.96016 6.58006 7.98205L6.57982 7.9842C6.57868 7.98806 6.57575 7.97349 6.56355 7.97942C6.46328 8.02818 6.30072 8.07048 6.09609 8.10145C5.88908 8.13277 5.64395 8.15085 5.38014 8.15085ZM27.8451 3.26722L27.8461 2.09606C27.8473 2.04784 27.8494 2.01623 27.8524 1.99404L27.8525 1.99406C27.8538 1.98451 27.8544 1.98129 27.8548 1.98025C27.8557 1.97807 27.8576 1.97655 27.8598 1.97557C27.8768 1.9679 27.8934 1.96783 27.902 1.97025C28.6779 2.18867 29.2338 2.05199 29.774 1.91914C30.1965 1.81526 30.6084 1.71398 31.1042 1.8218C31.1064 1.82226 31.1049 1.82615 31.1106 1.83363C31.1197 1.84562 31.1256 1.85663 31.1256 1.86282V2.96284C31.1256 2.97062 31.126 2.9783 31.1268 2.98586C31.129 3.09679 31.1234 3.14297 31.1115 3.1509C31.091 3.16448 31.0108 3.16053 30.9067 3.15434C30.4863 3.12936 30.1176 3.20758 29.7413 3.28742C29.1823 3.40605 28.6046 3.52855 27.8451 3.26722ZM28.6228 13.0957C28.6312 13.1025 28.6402 13.1088 28.6498 13.1144L28.9271 13.2777C29.1556 13.4574 29.3006 13.7008 29.3006 14.0075V16.9262H28.7066V15.8693C28.7066 15.7515 28.6111 15.656 28.4933 15.656C28.3755 15.656 28.28 15.7515 28.28 15.8693V16.9262H26.8918V15.8693C26.8918 15.7515 26.7963 15.656 26.6785 15.656C26.5606 15.656 26.4651 15.7515 26.4651 15.8693V16.9262H25.9733V14.0075C25.9733 13.7008 26.1183 13.4574 26.3468 13.2777L26.6241 13.1144C26.6337 13.1087 26.6427 13.1025 26.6511 13.0957C26.7383 13.0561 26.831 13.0225 26.9276 12.9949C27.1503 12.9314 27.3931 12.8997 27.6369 12.8997C27.8808 12.8997 28.1236 12.9314 28.3463 12.9949C28.4429 13.0225 28.5356 13.0561 28.6228 13.0957ZM29.7006 13.7334L30.0639 13.9475C30.0943 14.3051 30.1148 14.637 30.128 14.9299C29.9618 14.9348 29.817 14.9297 29.7272 14.9258V14.0075C29.7272 13.9116 29.718 13.8203 29.7006 13.7334ZM30.0141 13.4248L29.1943 12.9418C28.9892 12.7822 28.7378 12.6633 28.463 12.5849C28.2014 12.5103 27.9186 12.473 27.6369 12.473C27.3553 12.473 27.0725 12.5103 26.8109 12.5849C26.5361 12.6633 26.2847 12.7822 26.0796 12.9418L25.2936 13.4049C25.3683 12.5999 25.4977 11.6988 25.719 10.832C25.9385 9.97231 26.248 9.14937 26.6837 8.49577C26.7338 8.50575 26.7862 8.51489 26.8406 8.52311C27.0685 8.55761 27.3355 8.57751 27.6199 8.57751C27.9042 8.57751 28.1712 8.55761 28.3991 8.52311C28.4793 8.51098 28.5552 8.49687 28.6258 8.48101C29.0686 9.1466 29.3866 10.0515 29.6137 11.0063C29.8065 11.8169 29.9329 12.6601 30.0141 13.4248ZM25.5733 13.7334C25.5558 13.8203 25.5467 13.9116 25.5467 14.0075V14.9278C25.4548 14.9312 25.3269 14.9342 25.184 14.9296C25.1891 14.8625 25.1952 14.7826 25.2012 14.7046C25.2118 14.5656 25.222 14.4327 25.2251 14.3704C25.2322 14.2272 25.241 14.0776 25.2517 13.9229L25.5733 13.7334ZM27.6391 10.3085C27.7637 10.3085 27.8727 10.3389 27.9483 10.3881C27.9968 10.4196 28.0268 10.4549 28.0268 10.4864C28.0268 10.5179 27.9968 10.5531 27.9483 10.5847C27.8727 10.6339 27.7637 10.6643 27.6391 10.6643C27.5145 10.6643 27.4054 10.6339 27.3299 10.5847C27.2813 10.5531 27.2513 10.5179 27.2513 10.4864C27.2513 10.4549 27.2813 10.4196 27.3299 10.3881C27.4054 10.3389 27.5145 10.3085 27.6391 10.3085ZM28.1799 10.0314C28.0379 9.93896 27.8464 9.88178 27.6391 9.88178C27.4317 9.88178 27.2402 9.93895 27.0982 10.0314C26.9292 10.1414 26.8246 10.3018 26.8246 10.4864C26.8246 10.671 26.9292 10.8314 27.0982 10.9414C27.2402 11.0338 27.4317 11.091 27.6391 11.091C27.8464 11.091 28.0379 11.0338 28.1799 10.9414C28.3489 10.8314 28.4535 10.671 28.4535 10.4864C28.4535 10.3018 28.3489 10.1414 28.1799 10.0314ZM24.7597 14.8904C24.546 14.855 24.3418 14.7914 24.2054 14.6797C24.1568 14.6399 24.1185 14.5938 24.0956 14.5348C24.069 14.4662 24.0581 14.374 24.0683 14.2475C24.0687 14.2431 24.0689 14.2388 24.069 14.2344L24.0758 14.1604C24.0929 13.9732 24.1149 13.734 24.149 13.4459C24.1494 13.4419 24.1498 13.4379 24.15 13.4339C24.1741 13.251 24.1941 13.1107 24.2126 12.9926C24.2307 12.877 24.2492 12.7728 24.2699 12.6627C24.4172 11.8807 24.6313 11.0632 24.9679 10.3017C25.2665 9.62603 25.6621 8.99482 26.1937 8.47334C25.7992 9.13107 25.5129 9.91528 25.3057 10.727C24.9828 11.9917 24.851 13.329 24.8001 14.3504C24.7987 14.3793 24.7877 14.5228 24.7762 14.6729C24.7705 14.7473 24.7646 14.8233 24.7597 14.8904ZM31.1187 14.6797C30.9797 14.7936 30.7702 14.8575 30.552 14.8925C30.504 13.8483 30.3663 12.3275 30.0287 10.9079C29.8167 10.0163 29.5248 9.16076 29.1251 8.47856C29.6652 9.02502 30.0728 9.69316 30.38 10.4031C30.8404 11.4673 31.0767 12.6286 31.1956 13.6205C31.2104 13.7442 31.2274 13.93 31.2428 14.0996L31.2552 14.2344C31.2552 14.2387 31.2554 14.2431 31.2558 14.2475C31.266 14.3741 31.2552 14.4662 31.2285 14.5348C31.2056 14.5938 31.1673 14.6399 31.1187 14.6797ZM28.3505 6.44175L27.8903 6.75859C27.82 6.75679 27.7327 6.75586 27.6199 6.75586C27.5372 6.75586 27.4651 6.7568 27.4015 6.75862L26.9413 6.44175C26.9552 6.42728 26.9714 6.4122 26.9892 6.39689C27.0858 6.31422 27.2121 6.24124 27.3054 6.21699L27.6459 6.20654L27.9863 6.21699C28.0796 6.24124 28.206 6.31422 28.3025 6.39689C28.3204 6.41219 28.3366 6.42727 28.3505 6.44175ZM27.7982 5.78585L27.6517 5.78135C27.6478 5.78125 27.6439 5.78126 27.64 5.78136L27.5251 5.78488L27.2044 5.36829C27.2099 5.36164 27.2223 5.34942 27.2362 5.32738C27.2731 5.26886 27.3278 5.21076 27.383 5.16823C27.4029 5.15291 27.4211 5.14079 27.4361 5.13304L27.6459 5.12369L27.855 5.13301C27.8646 5.13816 27.8761 5.14539 27.889 5.15432C27.9472 5.19472 28.0066 5.25466 28.0471 5.31629C28.0651 5.34372 28.0793 5.36463 28.0849 5.37303L27.7982 5.78585ZM28.3358 8.10145C28.1288 8.13277 27.8837 8.15085 27.6199 8.15085C27.356 8.15085 27.1109 8.13277 26.9039 8.10145C26.6993 8.07048 26.5367 8.02818 26.4365 7.97942C26.4243 7.97349 26.4213 7.98806 26.4202 7.9842L26.4199 7.98205C26.4172 7.96016 26.4323 7.91202 26.4524 7.8541C26.4927 7.73806 26.5702 7.59028 26.6922 7.46097C26.7816 7.3661 26.8943 7.28273 27.0322 7.23294C27.0727 7.2183 27.1175 7.20648 27.1965 7.19768C27.2848 7.18785 27.4143 7.18253 27.6199 7.18253C27.8064 7.18253 27.9132 7.18431 27.9771 7.18769C28.0379 7.19092 28.0666 7.19526 28.0933 7.20079C28.2602 7.23539 28.3951 7.31635 28.5012 7.41494C28.6498 7.55314 28.7419 7.72348 28.7873 7.8541C28.8067 7.91009 28.8215 7.95703 28.82 7.9804L28.8198 7.98205C28.8189 7.98917 28.8164 7.97305 28.8033 7.97942C28.703 8.02818 28.5404 8.07048 28.3358 8.10145ZM14.3503 13.9096L13.0853 14.6548C13.1958 13.5649 13.373 12.3484 13.6506 11.1811C13.9683 9.84529 14.4163 8.57914 15.0441 7.65519C15.1532 7.68136 15.2727 7.70437 15.4007 7.72374C15.7088 7.77036 16.0701 7.79725 16.4553 7.79725C16.8406 7.79725 17.2019 7.77036 17.51 7.72374C17.602 7.70982 17.6896 7.69401 17.7721 7.67651C18.3893 8.58605 18.8253 9.73804 19.1325 10.9415C19.4503 12.1864 19.6301 13.4832 19.7302 14.6262L18.5136 13.9096C18.2414 13.6973 17.9067 13.5392 17.5408 13.4349C17.19 13.3348 16.8104 13.2848 16.432 13.2848C16.0535 13.2848 15.674 13.3348 15.3231 13.4349C14.9573 13.5392 14.6226 13.6974 14.3503 13.9096ZM13.071 15.1565L13.7321 14.7671C13.679 14.9328 13.6503 15.1123 13.6503 15.3059V16.6376L13.6107 16.6393C13.4794 16.6451 13.229 16.656 12.9416 16.6434C12.9601 16.2109 12.9902 15.7126 13.0367 15.1727C13.0484 15.1684 13.0599 15.163 13.071 15.1565ZM19.2136 15.3059C19.2136 15.1123 19.1849 14.9328 19.1318 14.7671L19.7711 15.1436C19.7871 15.3707 19.8001 15.5897 19.8105 15.7988C19.8144 15.8779 19.8285 16.0618 19.8433 16.2541C19.854 16.3939 19.865 16.5381 19.8726 16.6425C19.5974 16.6555 19.3541 16.6466 19.2136 16.6406V15.3059ZM18.3924 12.5293C18.5102 12.5293 18.6057 12.4338 18.6057 12.316C18.6057 12.1982 18.5102 12.1026 18.3924 12.1026H14.3884C14.2706 12.1026 14.1751 12.1982 14.1751 12.316C14.1751 12.4338 14.2706 12.5293 14.3884 12.5293H18.3924ZM16.4291 9.73912C16.1606 9.73912 15.9137 9.81242 15.7317 9.93094C15.5226 10.067 15.3933 10.2634 15.3933 10.4879C15.3933 10.7123 15.5226 10.9087 15.7317 11.0448C15.9137 11.1633 16.1606 11.2366 16.4291 11.2366C16.6976 11.2366 16.9445 11.1633 17.1265 11.0448C17.3356 10.9087 17.4649 10.7123 17.4649 10.4879C17.4649 10.2634 17.3356 10.067 17.1265 9.93094C16.9445 9.81242 16.6976 9.73912 16.4291 9.73912ZM15.9633 10.2876C16.079 10.2123 16.2433 10.1658 16.4291 10.1658C16.6148 10.1658 16.7792 10.2123 16.8948 10.2876C16.9834 10.3453 17.0383 10.4166 17.0383 10.4879C17.0383 10.5591 16.9834 10.6304 16.8948 10.6881C16.7792 10.7634 16.6148 10.8099 16.4291 10.8099C16.2433 10.8099 16.079 10.7634 15.9633 10.6881C15.8747 10.6304 15.8199 10.5591 15.8199 10.4879C15.8199 10.4166 15.8747 10.3453 15.9633 10.2876ZM14.7016 25.3637C14.5838 25.3637 14.4883 25.4592 14.4883 25.577C14.4883 25.6949 14.5838 25.7904 14.7016 25.7904H18.3021C18.4199 25.7904 18.5155 25.6949 18.5155 25.577C18.5155 25.4592 18.4199 25.3637 18.3021 25.3637H14.7016ZM10.6822 24.0252C10.5644 24.0252 10.4688 24.1207 10.4688 24.2385C10.4688 24.3564 10.5644 24.4519 10.6822 24.4519H22.3215C22.4394 24.4519 22.5349 24.3564 22.5349 24.2385C22.5349 24.1207 22.4394 24.0252 22.3215 24.0252H10.6822ZM6.66276 22.6867C6.54495 22.6867 6.44943 22.7822 6.44943 22.9C6.44943 23.0179 6.54495 23.1134 6.66276 23.1134H26.341C26.4588 23.1134 26.5543 23.0179 26.5543 22.9C26.5543 22.7822 26.4588 22.6867 26.341 22.6867H6.66276ZM21.1773 16.2865C20.961 16.4637 20.6311 16.5567 20.2968 16.604C20.2892 16.4958 20.2786 16.357 20.2683 16.2224C20.2527 16.0189 20.2378 15.8246 20.2355 15.7788C20.166 14.3857 19.9863 12.5617 19.5458 10.8365C19.2403 9.6395 18.8088 8.48732 18.2012 7.55208C18.2323 7.53965 18.2616 7.52684 18.2889 7.51369C19.1122 8.26466 19.7119 9.19872 20.156 10.2035C20.6192 11.2514 20.9138 12.3759 21.1163 13.4514C21.1444 13.6005 21.1696 13.7434 21.195 13.9053C21.2207 14.0696 21.2484 14.2638 21.2816 14.5162C21.2819 14.5202 21.2822 14.5243 21.2827 14.5283C21.3285 14.915 21.359 15.2478 21.3829 15.5082L21.3927 15.6151C21.3928 15.6195 21.393 15.6238 21.3934 15.6282C21.4083 15.8136 21.3915 15.9509 21.3508 16.0558C21.3138 16.1509 21.2534 16.2241 21.1773 16.2865ZM12.5176 16.6066C12.1768 16.5602 11.8383 16.4671 11.618 16.2865C11.5418 16.2241 11.4814 16.1509 11.4444 16.0558C11.4037 15.9509 11.3869 15.8136 11.4019 15.6282C11.4022 15.6239 11.4024 15.6195 11.4025 15.6152C11.408 15.5554 11.4139 15.491 11.4199 15.425C11.4414 15.1887 11.4651 14.9296 11.4845 14.7671C11.6479 13.4043 11.9729 11.8078 12.6067 10.3429C13.0704 9.27109 13.7003 8.26803 14.5544 7.47759C14.5739 7.48929 14.5947 7.50056 14.617 7.51138L14.6263 7.51586C13.9994 8.47894 13.5524 9.75066 13.2356 11.0828C12.7654 13.0599 12.5793 15.1801 12.5176 16.6066ZM16.062 5.46601L15.3413 4.96972C15.3693 4.92729 15.4148 4.87994 15.4703 4.83242C15.613 4.71024 15.8028 4.60211 15.9427 4.56782L16.4197 4.55317L16.8968 4.56782C17.0367 4.60211 17.2265 4.71024 17.3692 4.83242C17.4247 4.87994 17.4702 4.92729 17.4982 4.96972L16.7772 5.46621C16.6851 5.46327 16.579 5.46176 16.4553 5.46176C16.2867 5.46176 16.1606 5.4632 16.062 5.46601ZM16.4139 4.12799L16.1711 4.13545L15.7395 3.51421C15.7369 3.48738 15.7642 3.43291 15.8054 3.37037C15.8664 3.27753 15.9554 3.18757 16.0423 3.12726C16.0689 3.10873 16.0933 3.09426 16.114 3.085L16.4197 3.07137L16.7258 3.08502C16.7551 3.09784 16.7901 3.12005 16.8274 3.14875C16.9097 3.21212 16.9913 3.29898 17.0466 3.38678C17.0811 3.44147 17.104 3.48741 17.1035 3.50936L16.6227 4.13405L16.4256 4.12799C16.4217 4.12789 16.4178 4.12788 16.4139 4.12799ZM16.4553 7.37058C16.0906 7.37058 15.7511 7.34552 15.464 7.30207C15.1765 7.25857 14.9463 7.19825 14.802 7.12804C14.756 7.10569 14.7378 7.08783 14.7358 7.07169C14.7299 7.02545 14.753 6.94954 14.7839 6.86048C14.8493 6.67208 14.982 6.42655 15.196 6.22763C15.3505 6.08397 15.5475 5.96591 15.7919 5.91525C15.8319 5.90696 15.8744 5.90048 15.9626 5.8958C16.0537 5.89096 16.2014 5.88843 16.4553 5.88843C16.7389 5.88843 16.9188 5.89592 17.0432 5.90977C17.1584 5.9226 17.2249 5.94028 17.2859 5.96232C17.4878 6.0352 17.652 6.1565 17.7819 6.29429C17.957 6.48011 18.0687 6.69305 18.1268 6.86048C18.1577 6.94954 18.1807 7.02545 18.1749 7.07169C18.1729 7.08783 18.1547 7.10569 18.1087 7.12804C17.9644 7.19825 17.7341 7.25857 17.4467 7.30207C17.1596 7.34552 16.8201 7.37058 16.4553 7.37058Z"/>
</mask>
<path d="M5.58117 4.70799L5.57888 2.09105L5.57882 2.08605H5.57888C5.57723 2.01791 5.57399 1.97147 5.56918 1.93655L5.56906 1.93574L5.56918 1.93572C5.56261 1.8881 5.55277 1.85521 5.54016 1.82358C5.49185 1.70251 5.40754 1.62901 5.31519 1.58723C5.19633 1.53348 5.05988 1.5386 4.98299 1.56024C4.31442 1.74846 3.81401 1.62541 3.32762 1.50581C2.85595 1.38983 2.3961 1.27675 1.80577 1.40513C1.70489 1.42707 1.6146 1.49343 1.55107 1.57696C1.48816 1.65968 1.44777 1.7649 1.44777 1.86282V2.96284C1.44777 2.96754 1.44794 2.97219 1.44824 2.97681C1.44425 3.25968 1.51637 3.41472 1.65354 3.5059C1.78587 3.59385 1.93343 3.59032 2.11835 3.57934C2.48087 3.5578 2.82205 3.63019 3.17036 3.70409C3.75371 3.82787 4.35547 3.95546 5.1553 3.71392L5.15617 4.70669L5.09578 4.70938C5.07636 4.70975 5.05667 4.7128 5.03719 4.71879C4.98089 4.73607 4.92292 4.76594 4.86767 4.80432C4.77013 4.87207 4.66883 4.9751 4.59791 5.08296C4.50998 5.21667 4.46451 5.3674 4.50584 5.50207C4.51625 5.53605 4.53121 5.56761 4.55113 5.59628L4.74008 5.86831C4.6278 5.92131 4.51257 5.99499 4.4208 6.07355C4.34676 6.13693 4.28377 6.20631 4.24291 6.27533C4.17886 6.38351 4.16131 6.49585 4.21153 6.60391C4.2349 6.65413 4.27117 6.69762 4.3221 6.73269L4.53585 6.87986C4.41026 6.93957 4.30167 7.01694 4.20881 7.10327C4.00289 7.29472 3.87459 7.53271 3.81105 7.71577C3.77668 7.81476 3.75091 7.90661 3.75567 8.00161C3.08391 8.61847 2.591 9.40041 2.23002 10.2348C1.74908 11.3464 1.50367 12.5479 1.38108 13.5705C1.37072 13.657 1.35143 13.8684 1.33385 14.0613L1.32159 14.1952C1.32053 14.2014 1.31973 14.2078 1.31923 14.2142C1.30369 14.407 1.32525 14.5604 1.37484 14.6881C1.42817 14.8255 1.51003 14.9267 1.61128 15.0097C2.06906 15.3848 2.94719 15.365 3.27279 15.3516V16.9262H2.33838V15.8693C2.33838 15.7515 2.24287 15.656 2.12505 15.656C2.00723 15.656 1.91171 15.7515 1.91171 15.8693V16.9262H1.06827V15.8693C1.06827 15.7515 0.972754 15.656 0.854935 15.656C0.737116 15.656 0.641602 15.7515 0.641602 15.8693V17.1395C0.641602 17.2573 0.737116 17.3529 0.854935 17.3529H3.27279V18.0278L1.17949 18.0271C1.06213 18.0271 0.966988 18.1223 0.966988 18.2396C0.966988 18.357 1.06213 18.4521 1.17949 18.4521L3.47902 18.4528L3.48612 18.453L3.49311 18.4528L10.0499 18.4548V19.3736L1.17288 19.3627C1.05552 19.3627 0.96038 19.4578 0.96038 19.5752C0.96038 19.6926 1.05552 19.7877 1.17288 19.7877L10.2123 19.7988C10.2286 19.8028 10.2457 19.805 10.2633 19.805H13.6503V20.8837H10.2633C10.1455 20.8837 10.0499 20.9792 10.0499 21.097C10.0499 21.2148 10.1455 21.3103 10.2633 21.3103H22.7404C22.8583 21.3103 22.9538 21.2148 22.9538 21.097C22.9538 20.9792 22.8583 20.8837 22.7404 20.8837H19.2136V19.805H22.7404C22.758 19.805 22.7751 19.8028 22.7915 19.7988L31.8271 19.7877C31.9445 19.7877 32.0396 19.6926 32.0396 19.5752C32.0396 19.4578 31.9445 19.3627 31.8271 19.3627L22.9527 19.3736L22.9517 18.4419L25.7022 18.445C25.7206 18.4502 25.74 18.453 25.76 18.453C25.7798 18.453 25.799 18.4502 25.8173 18.4452L29.475 18.4494C29.4876 18.4517 29.5006 18.453 29.5139 18.453C29.527 18.453 29.5398 18.4518 29.5523 18.4495L31.8205 18.4521C31.9379 18.4521 32.033 18.357 32.033 18.2396C32.033 18.1223 31.9379 18.0271 31.8205 18.0271L29.7272 18.0247V17.3529H32.1451C32.2629 17.3529 32.3584 17.2573 32.3584 17.1395V15.8693C32.3584 15.7515 32.2629 15.656 32.1451 15.656C32.0273 15.656 31.9317 15.7515 31.9317 15.8693V16.9262H31.0883V15.8693C31.0883 15.7515 30.9928 15.656 30.875 15.656C30.7571 15.656 30.6616 15.7515 30.6616 15.8693V16.9262H29.7272V15.3516C30.0528 15.365 30.9309 15.3848 31.3887 15.0097C31.49 14.9267 31.5718 14.8255 31.6252 14.6881C31.6748 14.5604 31.6963 14.407 31.6808 14.2142C31.6803 14.2078 31.6795 14.2014 31.6784 14.1952L31.6662 14.0613C31.6486 13.8684 31.6293 13.657 31.6189 13.5705C31.4963 12.5479 31.2509 11.3464 30.77 10.2348C30.409 9.40041 29.9161 8.61847 29.2443 8.00161C29.2491 7.90661 29.2233 7.81476 29.189 7.71577C29.1254 7.53271 28.9971 7.29472 28.7912 7.10327C28.6983 7.01694 28.5897 6.93957 28.4642 6.87986L28.6779 6.73269C28.7288 6.69762 28.7651 6.65413 28.7885 6.60391C28.8387 6.49585 28.8211 6.38351 28.7571 6.27533C28.7162 6.20631 28.6532 6.13693 28.5792 6.07355C28.4874 5.99499 28.3722 5.92131 28.2599 5.86831L28.4489 5.59628C28.4688 5.56761 28.4838 5.53605 28.4942 5.50207C28.5355 5.3674 28.49 5.21667 28.4021 5.08296C28.3312 4.9751 28.2299 4.87207 28.1323 4.80432C28.0771 4.76594 28.0191 4.73607 27.9628 4.71879C27.9433 4.7128 27.9236 4.70975 27.9042 4.70938L27.8438 4.70669L27.8447 3.71392C28.6445 3.95546 29.2463 3.82787 29.8296 3.70409C30.1779 3.63019 30.5191 3.5578 30.8817 3.57934C31.0666 3.59032 31.2141 3.59385 31.3465 3.5059C31.4836 3.41472 31.5558 3.25968 31.5518 2.97681C31.5521 2.97219 31.5522 2.96754 31.5522 2.96284V1.86282C31.5522 1.7649 31.5118 1.65968 31.4489 1.57696C31.3854 1.49343 31.2951 1.42707 31.1942 1.40513C30.6039 1.27675 30.1441 1.38983 29.6724 1.50581C29.186 1.62541 28.6856 1.74846 28.017 1.56024C27.9401 1.5386 27.8037 1.53348 27.6848 1.58723C27.5925 1.62901 27.5082 1.70251 27.4598 1.82358C27.4472 1.85521 27.4374 1.8881 27.4308 1.93572L27.4309 1.93574L27.4308 1.93655C27.426 1.97147 27.4228 2.01791 27.4211 2.08605H27.4212L27.4211 2.09105L27.4188 4.70799L27.3823 4.70962C27.362 4.71049 27.3425 4.71418 27.3241 4.7203C27.2588 4.7412 27.189 4.78073 27.123 4.83156C27.0313 4.90215 26.9395 5.0003 26.8762 5.10072C26.7955 5.22884 26.7556 5.37078 26.7949 5.49887C26.8064 5.53652 26.8244 5.57196 26.8495 5.60461L27.0471 5.86123C26.93 5.91464 26.8085 5.99143 26.7126 6.07355C26.6385 6.13693 26.5755 6.20631 26.5347 6.27533C26.4706 6.38351 26.4531 6.49585 26.5033 6.60391C26.5267 6.65413 26.5629 6.69762 26.6139 6.73269L26.8071 6.86573C26.6356 6.94156 26.495 7.04955 26.3822 7.1693C26.2149 7.34674 26.1073 7.55283 26.0508 7.71577C26.0124 7.82629 25.9847 7.92796 25.9983 8.03538C25.9987 8.03841 25.9991 8.04142 25.9996 8.0444C26.0007 8.05167 26.0019 8.05886 26.0033 8.06597C25.3746 8.648 24.9168 9.36337 24.5779 10.13C24.227 10.9238 24.0043 11.7731 23.8516 12.5844C23.8324 12.6861 23.8139 12.7918 23.7926 12.9276C23.7728 13.0543 23.7522 13.1981 23.7284 13.3784C23.7273 13.3841 23.7263 13.39 23.7256 13.3959C23.6963 13.6437 23.6717 13.9121 23.6524 14.1221L23.6457 14.1952C23.6446 14.2014 23.6438 14.2077 23.6433 14.2142C23.6278 14.407 23.6494 14.5604 23.6989 14.6881C23.7523 14.8255 23.8341 14.9267 23.9354 15.0097C24.3714 15.3669 25.1885 15.366 25.5467 15.3535V16.9262H24.5101V15.8693C24.5101 15.7515 24.4146 15.656 24.2968 15.656C24.179 15.656 24.0834 15.7515 24.0834 15.8693V16.9262H23.24V15.8693C23.24 15.7515 23.1445 15.656 23.0267 15.656C22.9088 15.656 22.8133 15.7515 22.8133 15.8693V17.1395C22.8133 17.2573 22.9088 17.3529 23.0267 17.3529H25.5467V18.0199L22.7389 18.0166C22.6216 18.0166 22.5264 18.1117 22.5264 18.2291L22.5277 19.3742L21.2158 19.3758V17.8536C21.2158 17.7357 21.1203 17.6402 21.0025 17.6402C20.8847 17.6402 20.7892 17.7357 20.7892 17.8536V19.3763L20.3672 19.3768C20.3586 19.3768 20.3502 19.3773 20.3419 19.3783H19.2136V17.0663C19.6409 17.0843 20.837 17.1166 21.4473 16.6165C21.5761 16.5109 21.6801 16.3826 21.7475 16.2091C21.8111 16.0452 21.8386 15.8466 21.8184 15.5949C21.8179 15.5885 21.8171 15.5822 21.816 15.5759L21.8062 15.4699C21.7803 15.1867 21.747 14.8248 21.706 14.4783C21.7053 14.4724 21.7044 14.4665 21.7032 14.4608C21.6704 14.2111 21.6421 14.0134 21.615 13.8403C21.5865 13.6582 21.5612 13.5138 21.5347 13.3731C21.3266 12.2683 21.0235 11.1121 20.546 10.0318C20.0803 8.97831 19.4494 7.99658 18.5805 7.20262C18.5878 7.17707 18.5932 7.15064 18.5966 7.12336C18.6131 6.99264 18.5775 6.86356 18.5284 6.72215C18.454 6.50782 18.3124 6.23658 18.0919 6.00262C17.9211 5.82143 17.7023 5.6609 17.4292 5.56232C17.4201 5.55902 17.4109 5.55578 17.4016 5.55263L17.7874 5.28701C17.845 5.24732 17.8859 5.19851 17.912 5.1424C17.9686 5.02064 17.9473 4.89155 17.8727 4.76555C17.8213 4.67872 17.7409 4.59045 17.6459 4.50909C17.4938 4.37894 17.2937 4.25921 17.115 4.19179L17.4474 3.75998C17.4758 3.72303 17.4962 3.68285 17.5093 3.64014C17.5556 3.48922 17.5058 3.3175 17.4066 3.16011C17.3249 3.03043 17.2061 2.90351 17.0874 2.81208C17.0035 2.74754 16.9158 2.69771 16.8349 2.67206L16.8341 2.67178C16.816 2.6659 16.7969 2.66233 16.7771 2.66148L16.6522 2.65591L16.6504 0.603859C16.6504 0.486499 16.5553 0.391357 16.4379 0.391357C16.3206 0.391357 16.2254 0.486499 16.2254 0.603859L16.2272 2.65413L16.0677 2.66125C16.0483 2.66161 16.0286 2.66466 16.0091 2.67065C15.9403 2.69176 15.8684 2.72902 15.7989 2.77725C15.6727 2.86493 15.5418 2.99797 15.4504 3.13704C15.3419 3.30196 15.285 3.48512 15.3339 3.64453C15.3457 3.68309 15.3627 3.71898 15.3854 3.75165L15.6982 4.202C15.5264 4.27089 15.3382 4.38526 15.1936 4.50909C15.0985 4.59045 15.0182 4.67872 14.9668 4.76555C14.8922 4.89155 14.8709 5.02063 14.9275 5.1424C14.9536 5.19851 14.9945 5.24732 15.0521 5.28701L15.462 5.56924C15.2424 5.65147 15.0581 5.7745 14.906 5.91597C14.6347 6.16813 14.4659 6.4813 14.3823 6.72215C14.3336 6.86234 14.2983 6.99041 14.3137 7.11998C13.3887 7.96005 12.7115 9.03085 12.2167 10.1746C11.5624 11.6869 11.2283 13.3236 11.0612 14.7171C11.0462 14.8424 11.0202 15.1271 10.9966 15.3867L10.9792 15.5759C10.9782 15.5821 10.9774 15.5885 10.9769 15.5949C10.9566 15.8466 10.9841 16.0452 11.0477 16.2091C11.1151 16.3826 11.2191 16.5109 11.3479 16.6165C11.9825 17.1365 13.2507 17.0809 13.6291 17.0643L13.6503 17.0634V19.3783H12.6581C12.6498 19.3773 12.6414 19.3768 12.6328 19.3768L12.2146 19.3763V17.8536C12.2146 17.7357 12.1191 17.6402 12.0012 17.6402C11.8834 17.6402 11.7879 17.7357 11.7879 17.8536V19.3758L10.4766 19.3742V18.2424H10.4758C10.4758 18.125 10.3806 18.0299 10.2633 18.0299L7.45334 18.029V17.3529H9.97334C10.0912 17.3529 10.1867 17.2573 10.1867 17.1395V15.8693C10.1867 15.7515 10.0912 15.656 9.97334 15.656C9.85552 15.656 9.76 15.7515 9.76 15.8693V16.9262H8.91656V15.8693C8.91656 15.7515 8.82104 15.656 8.70322 15.656C8.5854 15.656 8.48989 15.7515 8.48989 15.8693V16.9262H7.45334V15.3535C7.81148 15.366 8.62865 15.3669 9.06462 15.0097C9.16586 14.9267 9.24772 14.8255 9.30106 14.6881C9.35065 14.5604 9.3722 14.407 9.35667 14.2142C9.35616 14.2077 9.35536 14.2014 9.35431 14.1952L9.34759 14.1221C9.32832 13.9121 9.30369 13.6437 9.27437 13.3959C9.27367 13.39 9.27272 13.3841 9.27156 13.3784C9.24783 13.1981 9.22722 13.0543 9.20738 12.9276C9.18612 12.7918 9.16759 12.6861 9.14845 12.5844C8.99567 11.7731 8.77298 10.9238 8.4221 10.13C8.08324 9.36337 7.62537 8.648 6.99672 8.06597C6.9981 8.05886 6.99931 8.05167 7.00038 8.0444C7.00088 8.04142 7.00134 8.03841 7.00172 8.03538C7.01526 7.92796 6.98759 7.82629 6.94923 7.71577C6.89267 7.55283 6.78514 7.34674 6.61785 7.1693C6.50498 7.04955 6.3644 6.94156 6.19292 6.86573L6.38614 6.73269C6.43707 6.69762 6.47335 6.65413 6.49671 6.60391C6.54693 6.49585 6.52939 6.38351 6.46533 6.27533C6.42447 6.20631 6.36147 6.13693 6.28744 6.07355C6.19151 5.99143 6.06996 5.91464 5.95293 5.86123L6.15045 5.60461C6.17559 5.57196 6.19359 5.53652 6.20514 5.49887C6.24444 5.37078 6.20454 5.22884 6.12379 5.10072C6.06051 5.0003 5.96871 4.90215 5.87699 4.83156C5.81096 4.78073 5.7412 4.7412 5.67588 4.7203C5.65752 4.71418 5.63802 4.71049 5.61773 4.70962L5.58117 4.70799ZM5.15388 2.09606L5.15491 3.26722C4.39539 3.52855 3.81774 3.40605 3.25869 3.28742C2.88236 3.20758 2.51373 3.12936 2.09335 3.15434C1.98916 3.16053 1.90897 3.16448 1.88854 3.1509C1.87661 3.14297 1.871 3.09679 1.87319 2.98586C1.874 2.9783 1.87443 2.97062 1.87443 2.96284V1.86282C1.87443 1.85663 1.88029 1.84562 1.88941 1.83363C1.89511 1.82615 1.89364 1.82226 1.89578 1.8218C2.3916 1.71398 2.80348 1.81526 3.22596 1.91914C3.76623 2.05199 4.3221 2.18867 5.09799 1.97025C5.10658 1.96783 5.12324 1.9679 5.14019 1.97557C5.14237 1.97655 5.14429 1.97807 5.14516 1.98025C5.14558 1.98129 5.1462 1.98451 5.14752 1.99406L5.14763 1.99404C5.15063 2.01623 5.15271 2.04784 5.15388 2.09606ZM7.02667 18.0289L3.69945 18.0279V17.3529H7.02667V18.0289ZM14.077 19.805H18.787V20.8837H14.077V19.805ZM18.787 19.3783H17.9569V17.8536C17.9569 17.7357 17.8613 17.6402 17.7435 17.6402C17.6257 17.6402 17.5302 17.7357 17.5302 17.8536V19.3783H15.4735V17.8536C15.4735 17.7357 15.378 17.6402 15.2602 17.6402C15.1424 17.6402 15.0469 17.7357 15.0469 17.8536V19.3783H14.077V15.3059C14.077 14.8586 14.2871 14.5048 14.6176 14.2454L15.0065 14.0163C15.0192 14.0089 15.0308 14.0003 15.0414 13.9908C15.1669 13.9333 15.3006 13.8846 15.4398 13.8449C15.7517 13.756 16.0913 13.7115 16.432 13.7115C16.7726 13.7115 17.1123 13.756 17.4241 13.8449C17.5634 13.8846 17.697 13.9333 17.8226 13.9909C17.8331 14.0003 17.8448 14.0089 17.8575 14.0163L18.2463 14.2454C18.5768 14.5048 18.787 14.8585 18.787 15.3059V19.3783ZM29.3006 18.0242L25.9733 18.0204V17.3529H29.3006V18.0242ZM4.35024 13.1144C4.35984 13.1088 4.36884 13.1025 4.3772 13.0957C4.46439 13.0561 4.55712 13.0225 4.65368 12.9949C4.87637 12.9314 5.11921 12.8997 5.36306 12.8997C5.60691 12.8997 5.84975 12.9314 6.07244 12.9949C6.169 13.0225 6.26173 13.0561 6.34891 13.0957C6.35728 13.1025 6.36628 13.1087 6.37588 13.1144L6.65317 13.2777C6.88168 13.4574 7.02667 13.7008 7.02667 14.0075V16.9262H6.53488V15.8693C6.53488 15.7515 6.43937 15.656 6.32155 15.656C6.20373 15.656 6.10822 15.7515 6.10822 15.8693V16.9262H4.72005V15.8693C4.72005 15.7515 4.62453 15.656 4.50672 15.656C4.3889 15.656 4.29338 15.7515 4.29338 15.8693V16.9262H3.69945V14.0075C3.69945 13.7008 3.84445 13.4574 4.07295 13.2777L4.35024 13.1144ZM3.80573 12.9418L2.98593 13.4248C3.06715 12.66 3.19349 11.8169 3.38627 11.0063C3.61336 10.0515 3.9314 9.1466 4.37418 8.48101C4.44483 8.49687 4.52068 8.51098 4.60085 8.52311C4.82882 8.55761 5.09581 8.57751 5.38014 8.57751C5.66445 8.57751 5.93146 8.55761 6.15943 8.52311C6.21379 8.51489 6.26616 8.50575 6.31628 8.49577C6.75196 9.14937 7.06151 9.97231 7.28099 10.832C7.50228 11.6988 7.63167 12.6 7.70636 13.4049L6.9204 12.9418C6.71535 12.7822 6.46387 12.6633 6.18911 12.5849C5.92747 12.5103 5.64475 12.473 5.36306 12.473C5.08137 12.473 4.79865 12.5103 4.53701 12.5849C4.26225 12.6633 4.0108 12.7822 3.80573 12.9418ZM2.93606 13.9475L3.29938 13.7334C3.28197 13.8203 3.27279 13.9116 3.27279 14.0075V14.9258C3.18305 14.9297 3.03818 14.9348 2.87201 14.9299C2.88524 14.637 2.90572 14.3051 2.93606 13.9475ZM7.45334 14.0075C7.45334 13.9116 7.44415 13.8203 7.42675 13.7334L7.74827 13.9229C7.75898 14.0776 7.76776 14.2272 7.7749 14.3704C7.778 14.4327 7.78819 14.5656 7.79884 14.7046C7.80481 14.7826 7.81093 14.8625 7.81595 14.9296C7.67306 14.9342 7.54519 14.9312 7.45334 14.9278V14.0075ZM5.36095 9.88178C5.15359 9.88178 4.96207 9.93896 4.82008 10.0314C4.65107 10.1414 4.54653 10.3018 4.54653 10.4864C4.54653 10.671 4.65107 10.8314 4.82008 10.9414C4.96207 11.0338 5.15359 11.091 5.36095 11.091C5.56831 11.091 5.75982 11.0338 5.90181 10.9414C6.07082 10.8314 6.17537 10.671 6.17537 10.4864C6.17537 10.3018 6.07082 10.1414 5.90181 10.0314C5.75982 9.93895 5.56831 9.88178 5.36095 9.88178ZM5.05175 10.3881C5.1273 10.3389 5.23634 10.3085 5.36095 10.3085C5.48554 10.3085 5.59459 10.3389 5.67015 10.3881C5.71867 10.4196 5.7487 10.4549 5.7487 10.4864C5.7487 10.5179 5.71867 10.5531 5.67015 10.5847C5.59459 10.6339 5.48554 10.6643 5.36095 10.6643C5.23634 10.6643 5.1273 10.6339 5.05175 10.5847C5.00322 10.5531 4.9732 10.5179 4.9732 10.4864C4.9732 10.4549 5.00322 10.4196 5.05175 10.3881ZM8.79461 14.6797C8.65824 14.7914 8.45401 14.855 8.24026 14.8904C8.23536 14.8233 8.22953 14.7473 8.22384 14.6729C8.21234 14.5228 8.20135 14.3793 8.19991 14.3504C8.14897 13.329 8.0172 11.9917 7.69433 10.727C7.48708 9.91528 7.2008 9.13106 6.80627 8.47334C7.33794 8.99482 7.73346 9.62603 8.03209 10.3017C8.36869 11.0632 8.58284 11.8807 8.73011 12.6627C8.75082 12.7728 8.76928 12.877 8.78738 12.9926C8.80586 13.1107 8.8259 13.251 8.84996 13.4339C8.8502 13.4379 8.85056 13.4419 8.85103 13.4459C8.88512 13.734 8.90708 13.9732 8.92425 14.1604L8.93105 14.2344C8.93113 14.2388 8.93132 14.2431 8.93167 14.2475C8.94186 14.374 8.93105 14.4662 8.90439 14.5348C8.88147 14.5938 8.84317 14.6399 8.79461 14.6797ZM2.44801 14.8925C2.22979 14.8575 2.02029 14.7936 1.88128 14.6797C1.83272 14.6399 1.79442 14.5938 1.77151 14.5348C1.74485 14.4662 1.73403 14.3741 1.74423 14.2475C1.74458 14.2431 1.74477 14.2387 1.74484 14.2344L1.75719 14.0996C1.77265 13.93 1.78959 13.7442 1.80442 13.6205C1.92332 12.6286 2.15959 11.4673 2.62002 10.4031C2.92718 9.69316 3.33475 9.02502 3.87489 8.47856C3.47523 9.16076 3.18333 10.0163 2.97128 10.9079C2.63367 12.3275 2.49595 13.8483 2.44801 14.8925ZM5.1097 6.75859L4.64954 6.44175C4.66342 6.42727 4.6796 6.41219 4.69747 6.39689C4.79405 6.31422 4.92039 6.24124 5.01365 6.21699L5.35412 6.20654L5.69459 6.21699C5.78786 6.24124 5.91419 6.31422 6.01076 6.39689C6.02864 6.4122 6.04481 6.42728 6.0587 6.44175L5.59851 6.75862C5.53492 6.7568 5.4628 6.75586 5.38014 6.75586C5.26727 6.75586 5.17996 6.75679 5.1097 6.75859ZM5.34828 5.78135L5.20184 5.78585L4.91508 5.37303C4.92068 5.36463 4.93487 5.34372 4.9529 5.31629C4.99343 5.25466 5.05285 5.19472 5.11101 5.15432C5.12387 5.14539 5.13537 5.13816 5.14503 5.13301L5.35412 5.12369L5.56393 5.13304C5.57894 5.14079 5.59708 5.15291 5.61699 5.16823C5.67225 5.21076 5.7269 5.26886 5.76379 5.32738C5.77768 5.34942 5.79008 5.36164 5.79556 5.36829L5.4749 5.78488L5.35995 5.78135C5.35609 5.78126 5.3522 5.78125 5.34828 5.78135ZM5.38014 8.15085C5.11632 8.15085 4.8712 8.13277 4.66419 8.10145C4.45956 8.07048 4.29699 8.02818 4.19673 7.97942C4.18363 7.97305 4.18111 7.98917 4.18021 7.98205L4.17998 7.9804C4.17848 7.95703 4.19328 7.91009 4.21271 7.8541C4.25805 7.72348 4.35017 7.55314 4.49881 7.41494C4.60486 7.31635 4.73981 7.23539 4.90674 7.20079C4.93339 7.19526 4.96205 7.19092 5.02292 7.18769C5.08679 7.18431 5.19364 7.18253 5.38014 7.18253C5.58573 7.18253 5.71516 7.18785 5.80349 7.19768C5.88255 7.20648 5.92728 7.2183 5.96783 7.23294C6.10575 7.28273 6.21843 7.3661 6.30785 7.46097C6.42976 7.59028 6.50729 7.73806 6.54756 7.8541C6.56767 7.91202 6.58282 7.96016 6.58006 7.98205L6.57982 7.9842C6.57868 7.98806 6.57575 7.97349 6.56355 7.97942C6.46328 8.02818 6.30072 8.07048 6.09609 8.10145C5.88908 8.13277 5.64395 8.15085 5.38014 8.15085ZM27.8451 3.26722L27.8461 2.09606C27.8473 2.04784 27.8494 2.01623 27.8524 1.99404L27.8525 1.99406C27.8538 1.98451 27.8544 1.98129 27.8548 1.98025C27.8557 1.97807 27.8576 1.97655 27.8598 1.97557C27.8768 1.9679 27.8934 1.96783 27.902 1.97025C28.6779 2.18867 29.2338 2.05199 29.774 1.91914C30.1965 1.81526 30.6084 1.71398 31.1042 1.8218C31.1064 1.82226 31.1049 1.82615 31.1106 1.83363C31.1197 1.84562 31.1256 1.85663 31.1256 1.86282V2.96284C31.1256 2.97062 31.126 2.9783 31.1268 2.98586C31.129 3.09679 31.1234 3.14297 31.1115 3.1509C31.091 3.16448 31.0108 3.16053 30.9067 3.15434C30.4863 3.12936 30.1176 3.20758 29.7413 3.28742C29.1823 3.40605 28.6046 3.52855 27.8451 3.26722ZM28.6228 13.0957C28.6312 13.1025 28.6402 13.1088 28.6498 13.1144L28.9271 13.2777C29.1556 13.4574 29.3006 13.7008 29.3006 14.0075V16.9262H28.7066V15.8693C28.7066 15.7515 28.6111 15.656 28.4933 15.656C28.3755 15.656 28.28 15.7515 28.28 15.8693V16.9262H26.8918V15.8693C26.8918 15.7515 26.7963 15.656 26.6785 15.656C26.5606 15.656 26.4651 15.7515 26.4651 15.8693V16.9262H25.9733V14.0075C25.9733 13.7008 26.1183 13.4574 26.3468 13.2777L26.6241 13.1144C26.6337 13.1087 26.6427 13.1025 26.6511 13.0957C26.7383 13.0561 26.831 13.0225 26.9276 12.9949C27.1503 12.9314 27.3931 12.8997 27.6369 12.8997C27.8808 12.8997 28.1236 12.9314 28.3463 12.9949C28.4429 13.0225 28.5356 13.0561 28.6228 13.0957ZM29.7006 13.7334L30.0639 13.9475C30.0943 14.3051 30.1148 14.637 30.128 14.9299C29.9618 14.9348 29.817 14.9297 29.7272 14.9258V14.0075C29.7272 13.9116 29.718 13.8203 29.7006 13.7334ZM30.0141 13.4248L29.1943 12.9418C28.9892 12.7822 28.7378 12.6633 28.463 12.5849C28.2014 12.5103 27.9186 12.473 27.6369 12.473C27.3553 12.473 27.0725 12.5103 26.8109 12.5849C26.5361 12.6633 26.2847 12.7822 26.0796 12.9418L25.2936 13.4049C25.3683 12.5999 25.4977 11.6988 25.719 10.832C25.9385 9.97231 26.248 9.14937 26.6837 8.49577C26.7338 8.50575 26.7862 8.51489 26.8406 8.52311C27.0685 8.55761 27.3355 8.57751 27.6199 8.57751C27.9042 8.57751 28.1712 8.55761 28.3991 8.52311C28.4793 8.51098 28.5552 8.49687 28.6258 8.48101C29.0686 9.1466 29.3866 10.0515 29.6137 11.0063C29.8065 11.8169 29.9329 12.6601 30.0141 13.4248ZM25.5733 13.7334C25.5558 13.8203 25.5467 13.9116 25.5467 14.0075V14.9278C25.4548 14.9312 25.3269 14.9342 25.184 14.9296C25.1891 14.8625 25.1952 14.7826 25.2012 14.7046C25.2118 14.5656 25.222 14.4327 25.2251 14.3704C25.2322 14.2272 25.241 14.0776 25.2517 13.9229L25.5733 13.7334ZM27.6391 10.3085C27.7637 10.3085 27.8727 10.3389 27.9483 10.3881C27.9968 10.4196 28.0268 10.4549 28.0268 10.4864C28.0268 10.5179 27.9968 10.5531 27.9483 10.5847C27.8727 10.6339 27.7637 10.6643 27.6391 10.6643C27.5145 10.6643 27.4054 10.6339 27.3299 10.5847C27.2813 10.5531 27.2513 10.5179 27.2513 10.4864C27.2513 10.4549 27.2813 10.4196 27.3299 10.3881C27.4054 10.3389 27.5145 10.3085 27.6391 10.3085ZM28.1799 10.0314C28.0379 9.93896 27.8464 9.88178 27.6391 9.88178C27.4317 9.88178 27.2402 9.93895 27.0982 10.0314C26.9292 10.1414 26.8246 10.3018 26.8246 10.4864C26.8246 10.671 26.9292 10.8314 27.0982 10.9414C27.2402 11.0338 27.4317 11.091 27.6391 11.091C27.8464 11.091 28.0379 11.0338 28.1799 10.9414C28.3489 10.8314 28.4535 10.671 28.4535 10.4864C28.4535 10.3018 28.3489 10.1414 28.1799 10.0314ZM24.7597 14.8904C24.546 14.855 24.3418 14.7914 24.2054 14.6797C24.1568 14.6399 24.1185 14.5938 24.0956 14.5348C24.069 14.4662 24.0581 14.374 24.0683 14.2475C24.0687 14.2431 24.0689 14.2388 24.069 14.2344L24.0758 14.1604C24.0929 13.9732 24.1149 13.734 24.149 13.4459C24.1494 13.4419 24.1498 13.4379 24.15 13.4339C24.1741 13.251 24.1941 13.1107 24.2126 12.9926C24.2307 12.877 24.2492 12.7728 24.2699 12.6627C24.4172 11.8807 24.6313 11.0632 24.9679 10.3017C25.2665 9.62603 25.6621 8.99482 26.1937 8.47334C25.7992 9.13107 25.5129 9.91528 25.3057 10.727C24.9828 11.9917 24.851 13.329 24.8001 14.3504C24.7987 14.3793 24.7877 14.5228 24.7762 14.6729C24.7705 14.7473 24.7646 14.8233 24.7597 14.8904ZM31.1187 14.6797C30.9797 14.7936 30.7702 14.8575 30.552 14.8925C30.504 13.8483 30.3663 12.3275 30.0287 10.9079C29.8167 10.0163 29.5248 9.16076 29.1251 8.47856C29.6652 9.02502 30.0728 9.69316 30.38 10.4031C30.8404 11.4673 31.0767 12.6286 31.1956 13.6205C31.2104 13.7442 31.2274 13.93 31.2428 14.0996L31.2552 14.2344C31.2552 14.2387 31.2554 14.2431 31.2558 14.2475C31.266 14.3741 31.2552 14.4662 31.2285 14.5348C31.2056 14.5938 31.1673 14.6399 31.1187 14.6797ZM28.3505 6.44175L27.8903 6.75859C27.82 6.75679 27.7327 6.75586 27.6199 6.75586C27.5372 6.75586 27.4651 6.7568 27.4015 6.75862L26.9413 6.44175C26.9552 6.42728 26.9714 6.4122 26.9892 6.39689C27.0858 6.31422 27.2121 6.24124 27.3054 6.21699L27.6459 6.20654L27.9863 6.21699C28.0796 6.24124 28.206 6.31422 28.3025 6.39689C28.3204 6.41219 28.3366 6.42727 28.3505 6.44175ZM27.7982 5.78585L27.6517 5.78135C27.6478 5.78125 27.6439 5.78126 27.64 5.78136L27.5251 5.78488L27.2044 5.36829C27.2099 5.36164 27.2223 5.34942 27.2362 5.32738C27.2731 5.26886 27.3278 5.21076 27.383 5.16823C27.4029 5.15291 27.4211 5.14079 27.4361 5.13304L27.6459 5.12369L27.855 5.13301C27.8646 5.13816 27.8761 5.14539 27.889 5.15432C27.9472 5.19472 28.0066 5.25466 28.0471 5.31629C28.0651 5.34372 28.0793 5.36463 28.0849 5.37303L27.7982 5.78585ZM28.3358 8.10145C28.1288 8.13277 27.8837 8.15085 27.6199 8.15085C27.356 8.15085 27.1109 8.13277 26.9039 8.10145C26.6993 8.07048 26.5367 8.02818 26.4365 7.97942C26.4243 7.97349 26.4213 7.98806 26.4202 7.9842L26.4199 7.98205C26.4172 7.96016 26.4323 7.91202 26.4524 7.8541C26.4927 7.73806 26.5702 7.59028 26.6922 7.46097C26.7816 7.3661 26.8943 7.28273 27.0322 7.23294C27.0727 7.2183 27.1175 7.20648 27.1965 7.19768C27.2848 7.18785 27.4143 7.18253 27.6199 7.18253C27.8064 7.18253 27.9132 7.18431 27.9771 7.18769C28.0379 7.19092 28.0666 7.19526 28.0933 7.20079C28.2602 7.23539 28.3951 7.31635 28.5012 7.41494C28.6498 7.55314 28.7419 7.72348 28.7873 7.8541C28.8067 7.91009 28.8215 7.95703 28.82 7.9804L28.8198 7.98205C28.8189 7.98917 28.8164 7.97305 28.8033 7.97942C28.703 8.02818 28.5404 8.07048 28.3358 8.10145ZM14.3503 13.9096L13.0853 14.6548C13.1958 13.5649 13.373 12.3484 13.6506 11.1811C13.9683 9.84529 14.4163 8.57914 15.0441 7.65519C15.1532 7.68136 15.2727 7.70437 15.4007 7.72374C15.7088 7.77036 16.0701 7.79725 16.4553 7.79725C16.8406 7.79725 17.2019 7.77036 17.51 7.72374C17.602 7.70982 17.6896 7.69401 17.7721 7.67651C18.3893 8.58605 18.8253 9.73804 19.1325 10.9415C19.4503 12.1864 19.6301 13.4832 19.7302 14.6262L18.5136 13.9096C18.2414 13.6973 17.9067 13.5392 17.5408 13.4349C17.19 13.3348 16.8104 13.2848 16.432 13.2848C16.0535 13.2848 15.674 13.3348 15.3231 13.4349C14.9573 13.5392 14.6226 13.6974 14.3503 13.9096ZM13.071 15.1565L13.7321 14.7671C13.679 14.9328 13.6503 15.1123 13.6503 15.3059V16.6376L13.6107 16.6393C13.4794 16.6451 13.229 16.656 12.9416 16.6434C12.9601 16.2109 12.9902 15.7126 13.0367 15.1727C13.0484 15.1684 13.0599 15.163 13.071 15.1565ZM19.2136 15.3059C19.2136 15.1123 19.1849 14.9328 19.1318 14.7671L19.7711 15.1436C19.7871 15.3707 19.8001 15.5897 19.8105 15.7988C19.8144 15.8779 19.8285 16.0618 19.8433 16.2541C19.854 16.3939 19.865 16.5381 19.8726 16.6425C19.5974 16.6555 19.3541 16.6466 19.2136 16.6406V15.3059ZM18.3924 12.5293C18.5102 12.5293 18.6057 12.4338 18.6057 12.316C18.6057 12.1982 18.5102 12.1026 18.3924 12.1026H14.3884C14.2706 12.1026 14.1751 12.1982 14.1751 12.316C14.1751 12.4338 14.2706 12.5293 14.3884 12.5293H18.3924ZM16.4291 9.73912C16.1606 9.73912 15.9137 9.81242 15.7317 9.93094C15.5226 10.067 15.3933 10.2634 15.3933 10.4879C15.3933 10.7123 15.5226 10.9087 15.7317 11.0448C15.9137 11.1633 16.1606 11.2366 16.4291 11.2366C16.6976 11.2366 16.9445 11.1633 17.1265 11.0448C17.3356 10.9087 17.4649 10.7123 17.4649 10.4879C17.4649 10.2634 17.3356 10.067 17.1265 9.93094C16.9445 9.81242 16.6976 9.73912 16.4291 9.73912ZM15.9633 10.2876C16.079 10.2123 16.2433 10.1658 16.4291 10.1658C16.6148 10.1658 16.7792 10.2123 16.8948 10.2876C16.9834 10.3453 17.0383 10.4166 17.0383 10.4879C17.0383 10.5591 16.9834 10.6304 16.8948 10.6881C16.7792 10.7634 16.6148 10.8099 16.4291 10.8099C16.2433 10.8099 16.079 10.7634 15.9633 10.6881C15.8747 10.6304 15.8199 10.5591 15.8199 10.4879C15.8199 10.4166 15.8747 10.3453 15.9633 10.2876ZM14.7016 25.3637C14.5838 25.3637 14.4883 25.4592 14.4883 25.577C14.4883 25.6949 14.5838 25.7904 14.7016 25.7904H18.3021C18.4199 25.7904 18.5155 25.6949 18.5155 25.577C18.5155 25.4592 18.4199 25.3637 18.3021 25.3637H14.7016ZM10.6822 24.0252C10.5644 24.0252 10.4688 24.1207 10.4688 24.2385C10.4688 24.3564 10.5644 24.4519 10.6822 24.4519H22.3215C22.4394 24.4519 22.5349 24.3564 22.5349 24.2385C22.5349 24.1207 22.4394 24.0252 22.3215 24.0252H10.6822ZM6.66276 22.6867C6.54495 22.6867 6.44943 22.7822 6.44943 22.9C6.44943 23.0179 6.54495 23.1134 6.66276 23.1134H26.341C26.4588 23.1134 26.5543 23.0179 26.5543 22.9C26.5543 22.7822 26.4588 22.6867 26.341 22.6867H6.66276ZM21.1773 16.2865C20.961 16.4637 20.6311 16.5567 20.2968 16.604C20.2892 16.4958 20.2786 16.357 20.2683 16.2224C20.2527 16.0189 20.2378 15.8246 20.2355 15.7788C20.166 14.3857 19.9863 12.5617 19.5458 10.8365C19.2403 9.6395 18.8088 8.48732 18.2012 7.55208C18.2323 7.53965 18.2616 7.52684 18.2889 7.51369C19.1122 8.26466 19.7119 9.19872 20.156 10.2035C20.6192 11.2514 20.9138 12.3759 21.1163 13.4514C21.1444 13.6005 21.1696 13.7434 21.195 13.9053C21.2207 14.0696 21.2484 14.2638 21.2816 14.5162C21.2819 14.5202 21.2822 14.5243 21.2827 14.5283C21.3285 14.915 21.359 15.2478 21.3829 15.5082L21.3927 15.6151C21.3928 15.6195 21.393 15.6238 21.3934 15.6282C21.4083 15.8136 21.3915 15.9509 21.3508 16.0558C21.3138 16.1509 21.2534 16.2241 21.1773 16.2865ZM12.5176 16.6066C12.1768 16.5602 11.8383 16.4671 11.618 16.2865C11.5418 16.2241 11.4814 16.1509 11.4444 16.0558C11.4037 15.9509 11.3869 15.8136 11.4019 15.6282C11.4022 15.6239 11.4024 15.6195 11.4025 15.6152C11.408 15.5554 11.4139 15.491 11.4199 15.425C11.4414 15.1887 11.4651 14.9296 11.4845 14.7671C11.6479 13.4043 11.9729 11.8078 12.6067 10.3429C13.0704 9.27109 13.7003 8.26803 14.5544 7.47759C14.5739 7.48929 14.5947 7.50056 14.617 7.51138L14.6263 7.51586C13.9994 8.47894 13.5524 9.75066 13.2356 11.0828C12.7654 13.0599 12.5793 15.1801 12.5176 16.6066ZM16.062 5.46601L15.3413 4.96972C15.3693 4.92729 15.4148 4.87994 15.4703 4.83242C15.613 4.71024 15.8028 4.60211 15.9427 4.56782L16.4197 4.55317L16.8968 4.56782C17.0367 4.60211 17.2265 4.71024 17.3692 4.83242C17.4247 4.87994 17.4702 4.92729 17.4982 4.96972L16.7772 5.46621C16.6851 5.46327 16.579 5.46176 16.4553 5.46176C16.2867 5.46176 16.1606 5.4632 16.062 5.46601ZM16.4139 4.12799L16.1711 4.13545L15.7395 3.51421C15.7369 3.48738 15.7642 3.43291 15.8054 3.37037C15.8664 3.27753 15.9554 3.18757 16.0423 3.12726C16.0689 3.10873 16.0933 3.09426 16.114 3.085L16.4197 3.07137L16.7258 3.08502C16.7551 3.09784 16.7901 3.12005 16.8274 3.14875C16.9097 3.21212 16.9913 3.29898 17.0466 3.38678C17.0811 3.44147 17.104 3.48741 17.1035 3.50936L16.6227 4.13405L16.4256 4.12799C16.4217 4.12789 16.4178 4.12788 16.4139 4.12799ZM16.4553 7.37058C16.0906 7.37058 15.7511 7.34552 15.464 7.30207C15.1765 7.25857 14.9463 7.19825 14.802 7.12804C14.756 7.10569 14.7378 7.08783 14.7358 7.07169C14.7299 7.02545 14.753 6.94954 14.7839 6.86048C14.8493 6.67208 14.982 6.42655 15.196 6.22763C15.3505 6.08397 15.5475 5.96591 15.7919 5.91525C15.8319 5.90696 15.8744 5.90048 15.9626 5.8958C16.0537 5.89096 16.2014 5.88843 16.4553 5.88843C16.7389 5.88843 16.9188 5.89592 17.0432 5.90977C17.1584 5.9226 17.2249 5.94028 17.2859 5.96232C17.4878 6.0352 17.652 6.1565 17.7819 6.29429C17.957 6.48011 18.0687 6.69305 18.1268 6.86048C18.1577 6.94954 18.1807 7.02545 18.1749 7.07169C18.1729 7.08783 18.1547 7.10569 18.1087 7.12804C17.9644 7.19825 17.7341 7.25857 17.4467 7.30207C17.1596 7.34552 16.8201 7.37058 16.4553 7.37058Z" fill="black"/>
<path d="M5.58117 4.70799L5.57888 2.09105L5.57882 2.08605H5.57888C5.57723 2.01791 5.57399 1.97147 5.56918 1.93655L5.56906 1.93574L5.56918 1.93572C5.56261 1.8881 5.55277 1.85521 5.54016 1.82358C5.49185 1.70251 5.40754 1.62901 5.31519 1.58723C5.19633 1.53348 5.05988 1.5386 4.98299 1.56024C4.31442 1.74846 3.81401 1.62541 3.32762 1.50581C2.85595 1.38983 2.3961 1.27675 1.80577 1.40513C1.70489 1.42707 1.6146 1.49343 1.55107 1.57696C1.48816 1.65968 1.44777 1.7649 1.44777 1.86282V2.96284C1.44777 2.96754 1.44794 2.97219 1.44824 2.97681C1.44425 3.25968 1.51637 3.41472 1.65354 3.5059C1.78587 3.59385 1.93343 3.59032 2.11835 3.57934C2.48087 3.5578 2.82205 3.63019 3.17036 3.70409C3.75371 3.82787 4.35547 3.95546 5.1553 3.71392L5.15617 4.70669L5.09578 4.70938C5.07636 4.70975 5.05667 4.7128 5.03719 4.71879C4.98089 4.73607 4.92292 4.76594 4.86767 4.80432C4.77013 4.87207 4.66883 4.9751 4.59791 5.08296C4.50998 5.21667 4.46451 5.3674 4.50584 5.50207C4.51625 5.53605 4.53121 5.56761 4.55113 5.59628L4.74008 5.86831C4.6278 5.92131 4.51257 5.99499 4.4208 6.07355C4.34676 6.13693 4.28377 6.20631 4.24291 6.27533C4.17886 6.38351 4.16131 6.49585 4.21153 6.60391C4.2349 6.65413 4.27117 6.69762 4.3221 6.73269L4.53585 6.87986C4.41026 6.93957 4.30167 7.01694 4.20881 7.10327C4.00289 7.29472 3.87459 7.53271 3.81105 7.71577C3.77668 7.81476 3.75091 7.90661 3.75567 8.00161C3.08391 8.61847 2.591 9.40041 2.23002 10.2348C1.74908 11.3464 1.50367 12.5479 1.38108 13.5705C1.37072 13.657 1.35143 13.8684 1.33385 14.0613L1.32159 14.1952C1.32053 14.2014 1.31973 14.2078 1.31923 14.2142C1.30369 14.407 1.32525 14.5604 1.37484 14.6881C1.42817 14.8255 1.51003 14.9267 1.61128 15.0097C2.06906 15.3848 2.94719 15.365 3.27279 15.3516V16.9262H2.33838V15.8693C2.33838 15.7515 2.24287 15.656 2.12505 15.656C2.00723 15.656 1.91171 15.7515 1.91171 15.8693V16.9262H1.06827V15.8693C1.06827 15.7515 0.972754 15.656 0.854935 15.656C0.737116 15.656 0.641602 15.7515 0.641602 15.8693V17.1395C0.641602 17.2573 0.737116 17.3529 0.854935 17.3529H3.27279V18.0278L1.17949 18.0271C1.06213 18.0271 0.966988 18.1223 0.966988 18.2396C0.966988 18.357 1.06213 18.4521 1.17949 18.4521L3.47902 18.4528L3.48612 18.453L3.49311 18.4528L10.0499 18.4548V19.3736L1.17288 19.3627C1.05552 19.3627 0.96038 19.4578 0.96038 19.5752C0.96038 19.6926 1.05552 19.7877 1.17288 19.7877L10.2123 19.7988C10.2286 19.8028 10.2457 19.805 10.2633 19.805H13.6503V20.8837H10.2633C10.1455 20.8837 10.0499 20.9792 10.0499 21.097C10.0499 21.2148 10.1455 21.3103 10.2633 21.3103H22.7404C22.8583 21.3103 22.9538 21.2148 22.9538 21.097C22.9538 20.9792 22.8583 20.8837 22.7404 20.8837H19.2136V19.805H22.7404C22.758 19.805 22.7751 19.8028 22.7915 19.7988L31.8271 19.7877C31.9445 19.7877 32.0396 19.6926 32.0396 19.5752C32.0396 19.4578 31.9445 19.3627 31.8271 19.3627L22.9527 19.3736L22.9517 18.4419L25.7022 18.445C25.7206 18.4502 25.74 18.453 25.76 18.453C25.7798 18.453 25.799 18.4502 25.8173 18.4452L29.475 18.4494C29.4876 18.4517 29.5006 18.453 29.5139 18.453C29.527 18.453 29.5398 18.4518 29.5523 18.4495L31.8205 18.4521C31.9379 18.4521 32.033 18.357 32.033 18.2396C32.033 18.1223 31.9379 18.0271 31.8205 18.0271L29.7272 18.0247V17.3529H32.1451C32.2629 17.3529 32.3584 17.2573 32.3584 17.1395V15.8693C32.3584 15.7515 32.2629 15.656 32.1451 15.656C32.0273 15.656 31.9317 15.7515 31.9317 15.8693V16.9262H31.0883V15.8693C31.0883 15.7515 30.9928 15.656 30.875 15.656C30.7571 15.656 30.6616 15.7515 30.6616 15.8693V16.9262H29.7272V15.3516C30.0528 15.365 30.9309 15.3848 31.3887 15.0097C31.49 14.9267 31.5718 14.8255 31.6252 14.6881C31.6748 14.5604 31.6963 14.407 31.6808 14.2142C31.6803 14.2078 31.6795 14.2014 31.6784 14.1952L31.6662 14.0613C31.6486 13.8684 31.6293 13.657 31.6189 13.5705C31.4963 12.5479 31.2509 11.3464 30.77 10.2348C30.409 9.40041 29.9161 8.61847 29.2443 8.00161C29.2491 7.90661 29.2233 7.81476 29.189 7.71577C29.1254 7.53271 28.9971 7.29472 28.7912 7.10327C28.6983 7.01694 28.5897 6.93957 28.4642 6.87986L28.6779 6.73269C28.7288 6.69762 28.7651 6.65413 28.7885 6.60391C28.8387 6.49585 28.8211 6.38351 28.7571 6.27533C28.7162 6.20631 28.6532 6.13693 28.5792 6.07355C28.4874 5.99499 28.3722 5.92131 28.2599 5.86831L28.4489 5.59628C28.4688 5.56761 28.4838 5.53605 28.4942 5.50207C28.5355 5.3674 28.49 5.21667 28.4021 5.08296C28.3312 4.9751 28.2299 4.87207 28.1323 4.80432C28.0771 4.76594 28.0191 4.73607 27.9628 4.71879C27.9433 4.7128 27.9236 4.70975 27.9042 4.70938L27.8438 4.70669L27.8447 3.71392C28.6445 3.95546 29.2463 3.82787 29.8296 3.70409C30.1779 3.63019 30.5191 3.5578 30.8817 3.57934C31.0666 3.59032 31.2141 3.59385 31.3465 3.5059C31.4836 3.41472 31.5558 3.25968 31.5518 2.97681C31.5521 2.97219 31.5522 2.96754 31.5522 2.96284V1.86282C31.5522 1.7649 31.5118 1.65968 31.4489 1.57696C31.3854 1.49343 31.2951 1.42707 31.1942 1.40513C30.6039 1.27675 30.1441 1.38983 29.6724 1.50581C29.186 1.62541 28.6856 1.74846 28.017 1.56024C27.9401 1.5386 27.8037 1.53348 27.6848 1.58723C27.5925 1.62901 27.5082 1.70251 27.4598 1.82358C27.4472 1.85521 27.4374 1.8881 27.4308 1.93572L27.4309 1.93574L27.4308 1.93655C27.426 1.97147 27.4228 2.01791 27.4211 2.08605H27.4212L27.4211 2.09105L27.4188 4.70799L27.3823 4.70962C27.362 4.71049 27.3425 4.71418 27.3241 4.7203C27.2588 4.7412 27.189 4.78073 27.123 4.83156C27.0313 4.90215 26.9395 5.0003 26.8762 5.10072C26.7955 5.22884 26.7556 5.37078 26.7949 5.49887C26.8064 5.53652 26.8244 5.57196 26.8495 5.60461L27.0471 5.86123C26.93 5.91464 26.8085 5.99143 26.7126 6.07355C26.6385 6.13693 26.5755 6.20631 26.5347 6.27533C26.4706 6.38351 26.4531 6.49585 26.5033 6.60391C26.5267 6.65413 26.5629 6.69762 26.6139 6.73269L26.8071 6.86573C26.6356 6.94156 26.495 7.04955 26.3822 7.1693C26.2149 7.34674 26.1073 7.55283 26.0508 7.71577C26.0124 7.82629 25.9847 7.92796 25.9983 8.03538C25.9987 8.03841 25.9991 8.04142 25.9996 8.0444C26.0007 8.05167 26.0019 8.05886 26.0033 8.06597C25.3746 8.648 24.9168 9.36337 24.5779 10.13C24.227 10.9238 24.0043 11.7731 23.8516 12.5844C23.8324 12.6861 23.8139 12.7918 23.7926 12.9276C23.7728 13.0543 23.7522 13.1981 23.7284 13.3784C23.7273 13.3841 23.7263 13.39 23.7256 13.3959C23.6963 13.6437 23.6717 13.9121 23.6524 14.1221L23.6457 14.1952C23.6446 14.2014 23.6438 14.2077 23.6433 14.2142C23.6278 14.407 23.6494 14.5604 23.6989 14.6881C23.7523 14.8255 23.8341 14.9267 23.9354 15.0097C24.3714 15.3669 25.1885 15.366 25.5467 15.3535V16.9262H24.5101V15.8693C24.5101 15.7515 24.4146 15.656 24.2968 15.656C24.179 15.656 24.0834 15.7515 24.0834 15.8693V16.9262H23.24V15.8693C23.24 15.7515 23.1445 15.656 23.0267 15.656C22.9088 15.656 22.8133 15.7515 22.8133 15.8693V17.1395C22.8133 17.2573 22.9088 17.3529 23.0267 17.3529H25.5467V18.0199L22.7389 18.0166C22.6216 18.0166 22.5264 18.1117 22.5264 18.2291L22.5277 19.3742L21.2158 19.3758V17.8536C21.2158 17.7357 21.1203 17.6402 21.0025 17.6402C20.8847 17.6402 20.7892 17.7357 20.7892 17.8536V19.3763L20.3672 19.3768C20.3586 19.3768 20.3502 19.3773 20.3419 19.3783H19.2136V17.0663C19.6409 17.0843 20.837 17.1166 21.4473 16.6165C21.5761 16.5109 21.6801 16.3826 21.7475 16.2091C21.8111 16.0452 21.8386 15.8466 21.8184 15.5949C21.8179 15.5885 21.8171 15.5822 21.816 15.5759L21.8062 15.4699C21.7803 15.1867 21.747 14.8248 21.706 14.4783C21.7053 14.4724 21.7044 14.4665 21.7032 14.4608C21.6704 14.2111 21.6421 14.0134 21.615 13.8403C21.5865 13.6582 21.5612 13.5138 21.5347 13.3731C21.3266 12.2683 21.0235 11.1121 20.546 10.0318C20.0803 8.97831 19.4494 7.99658 18.5805 7.20262C18.5878 7.17707 18.5932 7.15064 18.5966 7.12336C18.6131 6.99264 18.5775 6.86356 18.5284 6.72215C18.454 6.50782 18.3124 6.23658 18.0919 6.00262C17.9211 5.82143 17.7023 5.6609 17.4292 5.56232C17.4201 5.55902 17.4109 5.55578 17.4016 5.55263L17.7874 5.28701C17.845 5.24732 17.8859 5.19851 17.912 5.1424C17.9686 5.02064 17.9473 4.89155 17.8727 4.76555C17.8213 4.67872 17.7409 4.59045 17.6459 4.50909C17.4938 4.37894 17.2937 4.25921 17.115 4.19179L17.4474 3.75998C17.4758 3.72303 17.4962 3.68285 17.5093 3.64014C17.5556 3.48922 17.5058 3.3175 17.4066 3.16011C17.3249 3.03043 17.2061 2.90351 17.0874 2.81208C17.0035 2.74754 16.9158 2.69771 16.8349 2.67206L16.8341 2.67178C16.816 2.6659 16.7969 2.66233 16.7771 2.66148L16.6522 2.65591L16.6504 0.603859C16.6504 0.486499 16.5553 0.391357 16.4379 0.391357C16.3206 0.391357 16.2254 0.486499 16.2254 0.603859L16.2272 2.65413L16.0677 2.66125C16.0483 2.66161 16.0286 2.66466 16.0091 2.67065C15.9403 2.69176 15.8684 2.72902 15.7989 2.77725C15.6727 2.86493 15.5418 2.99797 15.4504 3.13704C15.3419 3.30196 15.285 3.48512 15.3339 3.64453C15.3457 3.68309 15.3627 3.71898 15.3854 3.75165L15.6982 4.202C15.5264 4.27089 15.3382 4.38526 15.1936 4.50909C15.0985 4.59045 15.0182 4.67872 14.9668 4.76555C14.8922 4.89155 14.8709 5.02063 14.9275 5.1424C14.9536 5.19851 14.9945 5.24732 15.0521 5.28701L15.462 5.56924C15.2424 5.65147 15.0581 5.7745 14.906 5.91597C14.6347 6.16813 14.4659 6.4813 14.3823 6.72215C14.3336 6.86234 14.2983 6.99041 14.3137 7.11998C13.3887 7.96005 12.7115 9.03085 12.2167 10.1746C11.5624 11.6869 11.2283 13.3236 11.0612 14.7171C11.0462 14.8424 11.0202 15.1271 10.9966 15.3867L10.9792 15.5759C10.9782 15.5821 10.9774 15.5885 10.9769 15.5949C10.9566 15.8466 10.9841 16.0452 11.0477 16.2091C11.1151 16.3826 11.2191 16.5109 11.3479 16.6165C11.9825 17.1365 13.2507 17.0809 13.6291 17.0643L13.6503 17.0634V19.3783H12.6581C12.6498 19.3773 12.6414 19.3768 12.6328 19.3768L12.2146 19.3763V17.8536C12.2146 17.7357 12.1191 17.6402 12.0012 17.6402C11.8834 17.6402 11.7879 17.7357 11.7879 17.8536V19.3758L10.4766 19.3742V18.2424H10.4758C10.4758 18.125 10.3806 18.0299 10.2633 18.0299L7.45334 18.029V17.3529H9.97334C10.0912 17.3529 10.1867 17.2573 10.1867 17.1395V15.8693C10.1867 15.7515 10.0912 15.656 9.97334 15.656C9.85552 15.656 9.76 15.7515 9.76 15.8693V16.9262H8.91656V15.8693C8.91656 15.7515 8.82104 15.656 8.70322 15.656C8.5854 15.656 8.48989 15.7515 8.48989 15.8693V16.9262H7.45334V15.3535C7.81148 15.366 8.62865 15.3669 9.06462 15.0097C9.16586 14.9267 9.24772 14.8255 9.30106 14.6881C9.35065 14.5604 9.3722 14.407 9.35667 14.2142C9.35616 14.2077 9.35536 14.2014 9.35431 14.1952L9.34759 14.1221C9.32832 13.9121 9.30369 13.6437 9.27437 13.3959C9.27367 13.39 9.27272 13.3841 9.27156 13.3784C9.24783 13.1981 9.22722 13.0543 9.20738 12.9276C9.18612 12.7918 9.16759 12.6861 9.14845 12.5844C8.99567 11.7731 8.77298 10.9238 8.4221 10.13C8.08324 9.36337 7.62537 8.648 6.99672 8.06597C6.9981 8.05886 6.99931 8.05167 7.00038 8.0444C7.00088 8.04142 7.00134 8.03841 7.00172 8.03538C7.01526 7.92796 6.98759 7.82629 6.94923 7.71577C6.89267 7.55283 6.78514 7.34674 6.61785 7.1693C6.50498 7.04955 6.3644 6.94156 6.19292 6.86573L6.38614 6.73269C6.43707 6.69762 6.47335 6.65413 6.49671 6.60391C6.54693 6.49585 6.52939 6.38351 6.46533 6.27533C6.42447 6.20631 6.36147 6.13693 6.28744 6.07355C6.19151 5.99143 6.06996 5.91464 5.95293 5.86123L6.15045 5.60461C6.17559 5.57196 6.19359 5.53652 6.20514 5.49887C6.24444 5.37078 6.20454 5.22884 6.12379 5.10072C6.06051 5.0003 5.96871 4.90215 5.87699 4.83156C5.81096 4.78073 5.7412 4.7412 5.67588 4.7203C5.65752 4.71418 5.63802 4.71049 5.61773 4.70962L5.58117 4.70799ZM5.15388 2.09606L5.15491 3.26722C4.39539 3.52855 3.81774 3.40605 3.25869 3.28742C2.88236 3.20758 2.51373 3.12936 2.09335 3.15434C1.98916 3.16053 1.90897 3.16448 1.88854 3.1509C1.87661 3.14297 1.871 3.09679 1.87319 2.98586C1.874 2.9783 1.87443 2.97062 1.87443 2.96284V1.86282C1.87443 1.85663 1.88029 1.84562 1.88941 1.83363C1.89511 1.82615 1.89364 1.82226 1.89578 1.8218C2.3916 1.71398 2.80348 1.81526 3.22596 1.91914C3.76623 2.05199 4.3221 2.18867 5.09799 1.97025C5.10658 1.96783 5.12324 1.9679 5.14019 1.97557C5.14237 1.97655 5.14429 1.97807 5.14516 1.98025C5.14558 1.98129 5.1462 1.98451 5.14752 1.99406L5.14763 1.99404C5.15063 2.01623 5.15271 2.04784 5.15388 2.09606ZM7.02667 18.0289L3.69945 18.0279V17.3529H7.02667V18.0289ZM14.077 19.805H18.787V20.8837H14.077V19.805ZM18.787 19.3783H17.9569V17.8536C17.9569 17.7357 17.8613 17.6402 17.7435 17.6402C17.6257 17.6402 17.5302 17.7357 17.5302 17.8536V19.3783H15.4735V17.8536C15.4735 17.7357 15.378 17.6402 15.2602 17.6402C15.1424 17.6402 15.0469 17.7357 15.0469 17.8536V19.3783H14.077V15.3059C14.077 14.8586 14.2871 14.5048 14.6176 14.2454L15.0065 14.0163C15.0192 14.0089 15.0308 14.0003 15.0414 13.9908C15.1669 13.9333 15.3006 13.8846 15.4398 13.8449C15.7517 13.756 16.0913 13.7115 16.432 13.7115C16.7726 13.7115 17.1123 13.756 17.4241 13.8449C17.5634 13.8846 17.697 13.9333 17.8226 13.9909C17.8331 14.0003 17.8448 14.0089 17.8575 14.0163L18.2463 14.2454C18.5768 14.5048 18.787 14.8585 18.787 15.3059V19.3783ZM29.3006 18.0242L25.9733 18.0204V17.3529H29.3006V18.0242ZM4.35024 13.1144C4.35984 13.1088 4.36884 13.1025 4.3772 13.0957C4.46439 13.0561 4.55712 13.0225 4.65368 12.9949C4.87637 12.9314 5.11921 12.8997 5.36306 12.8997C5.60691 12.8997 5.84975 12.9314 6.07244 12.9949C6.169 13.0225 6.26173 13.0561 6.34891 13.0957C6.35728 13.1025 6.36628 13.1087 6.37588 13.1144L6.65317 13.2777C6.88168 13.4574 7.02667 13.7008 7.02667 14.0075V16.9262H6.53488V15.8693C6.53488 15.7515 6.43937 15.656 6.32155 15.656C6.20373 15.656 6.10822 15.7515 6.10822 15.8693V16.9262H4.72005V15.8693C4.72005 15.7515 4.62453 15.656 4.50672 15.656C4.3889 15.656 4.29338 15.7515 4.29338 15.8693V16.9262H3.69945V14.0075C3.69945 13.7008 3.84445 13.4574 4.07295 13.2777L4.35024 13.1144ZM3.80573 12.9418L2.98593 13.4248C3.06715 12.66 3.19349 11.8169 3.38627 11.0063C3.61336 10.0515 3.9314 9.1466 4.37418 8.48101C4.44483 8.49687 4.52068 8.51098 4.60085 8.52311C4.82882 8.55761 5.09581 8.57751 5.38014 8.57751C5.66445 8.57751 5.93146 8.55761 6.15943 8.52311C6.21379 8.51489 6.26616 8.50575 6.31628 8.49577C6.75196 9.14937 7.06151 9.97231 7.28099 10.832C7.50228 11.6988 7.63167 12.6 7.70636 13.4049L6.9204 12.9418C6.71535 12.7822 6.46387 12.6633 6.18911 12.5849C5.92747 12.5103 5.64475 12.473 5.36306 12.473C5.08137 12.473 4.79865 12.5103 4.53701 12.5849C4.26225 12.6633 4.0108 12.7822 3.80573 12.9418ZM2.93606 13.9475L3.29938 13.7334C3.28197 13.8203 3.27279 13.9116 3.27279 14.0075V14.9258C3.18305 14.9297 3.03818 14.9348 2.87201 14.9299C2.88524 14.637 2.90572 14.3051 2.93606 13.9475ZM7.45334 14.0075C7.45334 13.9116 7.44415 13.8203 7.42675 13.7334L7.74827 13.9229C7.75898 14.0776 7.76776 14.2272 7.7749 14.3704C7.778 14.4327 7.78819 14.5656 7.79884 14.7046C7.80481 14.7826 7.81093 14.8625 7.81595 14.9296C7.67306 14.9342 7.54519 14.9312 7.45334 14.9278V14.0075ZM5.36095 9.88178C5.15359 9.88178 4.96207 9.93896 4.82008 10.0314C4.65107 10.1414 4.54653 10.3018 4.54653 10.4864C4.54653 10.671 4.65107 10.8314 4.82008 10.9414C4.96207 11.0338 5.15359 11.091 5.36095 11.091C5.56831 11.091 5.75982 11.0338 5.90181 10.9414C6.07082 10.8314 6.17537 10.671 6.17537 10.4864C6.17537 10.3018 6.07082 10.1414 5.90181 10.0314C5.75982 9.93895 5.56831 9.88178 5.36095 9.88178ZM5.05175 10.3881C5.1273 10.3389 5.23634 10.3085 5.36095 10.3085C5.48554 10.3085 5.59459 10.3389 5.67015 10.3881C5.71867 10.4196 5.7487 10.4549 5.7487 10.4864C5.7487 10.5179 5.71867 10.5531 5.67015 10.5847C5.59459 10.6339 5.48554 10.6643 5.36095 10.6643C5.23634 10.6643 5.1273 10.6339 5.05175 10.5847C5.00322 10.5531 4.9732 10.5179 4.9732 10.4864C4.9732 10.4549 5.00322 10.4196 5.05175 10.3881ZM8.79461 14.6797C8.65824 14.7914 8.45401 14.855 8.24026 14.8904C8.23536 14.8233 8.22953 14.7473 8.22384 14.6729C8.21234 14.5228 8.20135 14.3793 8.19991 14.3504C8.14897 13.329 8.0172 11.9917 7.69433 10.727C7.48708 9.91528 7.2008 9.13106 6.80627 8.47334C7.33794 8.99482 7.73346 9.62603 8.03209 10.3017C8.36869 11.0632 8.58284 11.8807 8.73011 12.6627C8.75082 12.7728 8.76928 12.877 8.78738 12.9926C8.80586 13.1107 8.8259 13.251 8.84996 13.4339C8.8502 13.4379 8.85056 13.4419 8.85103 13.4459C8.88512 13.734 8.90708 13.9732 8.92425 14.1604L8.93105 14.2344C8.93113 14.2388 8.93132 14.2431 8.93167 14.2475C8.94186 14.374 8.93105 14.4662 8.90439 14.5348C8.88147 14.5938 8.84317 14.6399 8.79461 14.6797ZM2.44801 14.8925C2.22979 14.8575 2.02029 14.7936 1.88128 14.6797C1.83272 14.6399 1.79442 14.5938 1.77151 14.5348C1.74485 14.4662 1.73403 14.3741 1.74423 14.2475C1.74458 14.2431 1.74477 14.2387 1.74484 14.2344L1.75719 14.0996C1.77265 13.93 1.78959 13.7442 1.80442 13.6205C1.92332 12.6286 2.15959 11.4673 2.62002 10.4031C2.92718 9.69316 3.33475 9.02502 3.87489 8.47856C3.47523 9.16076 3.18333 10.0163 2.97128 10.9079C2.63367 12.3275 2.49595 13.8483 2.44801 14.8925ZM5.1097 6.75859L4.64954 6.44175C4.66342 6.42727 4.6796 6.41219 4.69747 6.39689C4.79405 6.31422 4.92039 6.24124 5.01365 6.21699L5.35412 6.20654L5.69459 6.21699C5.78786 6.24124 5.91419 6.31422 6.01076 6.39689C6.02864 6.4122 6.04481 6.42728 6.0587 6.44175L5.59851 6.75862C5.53492 6.7568 5.4628 6.75586 5.38014 6.75586C5.26727 6.75586 5.17996 6.75679 5.1097 6.75859ZM5.34828 5.78135L5.20184 5.78585L4.91508 5.37303C4.92068 5.36463 4.93487 5.34372 4.9529 5.31629C4.99343 5.25466 5.05285 5.19472 5.11101 5.15432C5.12387 5.14539 5.13537 5.13816 5.14503 5.13301L5.35412 5.12369L5.56393 5.13304C5.57894 5.14079 5.59708 5.15291 5.61699 5.16823C5.67225 5.21076 5.7269 5.26886 5.76379 5.32738C5.77768 5.34942 5.79008 5.36164 5.79556 5.36829L5.4749 5.78488L5.35995 5.78135C5.35609 5.78126 5.3522 5.78125 5.34828 5.78135ZM5.38014 8.15085C5.11632 8.15085 4.8712 8.13277 4.66419 8.10145C4.45956 8.07048 4.29699 8.02818 4.19673 7.97942C4.18363 7.97305 4.18111 7.98917 4.18021 7.98205L4.17998 7.9804C4.17848 7.95703 4.19328 7.91009 4.21271 7.8541C4.25805 7.72348 4.35017 7.55314 4.49881 7.41494C4.60486 7.31635 4.73981 7.23539 4.90674 7.20079C4.93339 7.19526 4.96205 7.19092 5.02292 7.18769C5.08679 7.18431 5.19364 7.18253 5.38014 7.18253C5.58573 7.18253 5.71516 7.18785 5.80349 7.19768C5.88255 7.20648 5.92728 7.2183 5.96783 7.23294C6.10575 7.28273 6.21843 7.3661 6.30785 7.46097C6.42976 7.59028 6.50729 7.73806 6.54756 7.8541C6.56767 7.91202 6.58282 7.96016 6.58006 7.98205L6.57982 7.9842C6.57868 7.98806 6.57575 7.97349 6.56355 7.97942C6.46328 8.02818 6.30072 8.07048 6.09609 8.10145C5.88908 8.13277 5.64395 8.15085 5.38014 8.15085ZM27.8451 3.26722L27.8461 2.09606C27.8473 2.04784 27.8494 2.01623 27.8524 1.99404L27.8525 1.99406C27.8538 1.98451 27.8544 1.98129 27.8548 1.98025C27.8557 1.97807 27.8576 1.97655 27.8598 1.97557C27.8768 1.9679 27.8934 1.96783 27.902 1.97025C28.6779 2.18867 29.2338 2.05199 29.774 1.91914C30.1965 1.81526 30.6084 1.71398 31.1042 1.8218C31.1064 1.82226 31.1049 1.82615 31.1106 1.83363C31.1197 1.84562 31.1256 1.85663 31.1256 1.86282V2.96284C31.1256 2.97062 31.126 2.9783 31.1268 2.98586C31.129 3.09679 31.1234 3.14297 31.1115 3.1509C31.091 3.16448 31.0108 3.16053 30.9067 3.15434C30.4863 3.12936 30.1176 3.20758 29.7413 3.28742C29.1823 3.40605 28.6046 3.52855 27.8451 3.26722ZM28.6228 13.0957C28.6312 13.1025 28.6402 13.1088 28.6498 13.1144L28.9271 13.2777C29.1556 13.4574 29.3006 13.7008 29.3006 14.0075V16.9262H28.7066V15.8693C28.7066 15.7515 28.6111 15.656 28.4933 15.656C28.3755 15.656 28.28 15.7515 28.28 15.8693V16.9262H26.8918V15.8693C26.8918 15.7515 26.7963 15.656 26.6785 15.656C26.5606 15.656 26.4651 15.7515 26.4651 15.8693V16.9262H25.9733V14.0075C25.9733 13.7008 26.1183 13.4574 26.3468 13.2777L26.6241 13.1144C26.6337 13.1087 26.6427 13.1025 26.6511 13.0957C26.7383 13.0561 26.831 13.0225 26.9276 12.9949C27.1503 12.9314 27.3931 12.8997 27.6369 12.8997C27.8808 12.8997 28.1236 12.9314 28.3463 12.9949C28.4429 13.0225 28.5356 13.0561 28.6228 13.0957ZM29.7006 13.7334L30.0639 13.9475C30.0943 14.3051 30.1148 14.637 30.128 14.9299C29.9618 14.9348 29.817 14.9297 29.7272 14.9258V14.0075C29.7272 13.9116 29.718 13.8203 29.7006 13.7334ZM30.0141 13.4248L29.1943 12.9418C28.9892 12.7822 28.7378 12.6633 28.463 12.5849C28.2014 12.5103 27.9186 12.473 27.6369 12.473C27.3553 12.473 27.0725 12.5103 26.8109 12.5849C26.5361 12.6633 26.2847 12.7822 26.0796 12.9418L25.2936 13.4049C25.3683 12.5999 25.4977 11.6988 25.719 10.832C25.9385 9.97231 26.248 9.14937 26.6837 8.49577C26.7338 8.50575 26.7862 8.51489 26.8406 8.52311C27.0685 8.55761 27.3355 8.57751 27.6199 8.57751C27.9042 8.57751 28.1712 8.55761 28.3991 8.52311C28.4793 8.51098 28.5552 8.49687 28.6258 8.48101C29.0686 9.1466 29.3866 10.0515 29.6137 11.0063C29.8065 11.8169 29.9329 12.6601 30.0141 13.4248ZM25.5733 13.7334C25.5558 13.8203 25.5467 13.9116 25.5467 14.0075V14.9278C25.4548 14.9312 25.3269 14.9342 25.184 14.9296C25.1891 14.8625 25.1952 14.7826 25.2012 14.7046C25.2118 14.5656 25.222 14.4327 25.2251 14.3704C25.2322 14.2272 25.241 14.0776 25.2517 13.9229L25.5733 13.7334ZM27.6391 10.3085C27.7637 10.3085 27.8727 10.3389 27.9483 10.3881C27.9968 10.4196 28.0268 10.4549 28.0268 10.4864C28.0268 10.5179 27.9968 10.5531 27.9483 10.5847C27.8727 10.6339 27.7637 10.6643 27.6391 10.6643C27.5145 10.6643 27.4054 10.6339 27.3299 10.5847C27.2813 10.5531 27.2513 10.5179 27.2513 10.4864C27.2513 10.4549 27.2813 10.4196 27.3299 10.3881C27.4054 10.3389 27.5145 10.3085 27.6391 10.3085ZM28.1799 10.0314C28.0379 9.93896 27.8464 9.88178 27.6391 9.88178C27.4317 9.88178 27.2402 9.93895 27.0982 10.0314C26.9292 10.1414 26.8246 10.3018 26.8246 10.4864C26.8246 10.671 26.9292 10.8314 27.0982 10.9414C27.2402 11.0338 27.4317 11.091 27.6391 11.091C27.8464 11.091 28.0379 11.0338 28.1799 10.9414C28.3489 10.8314 28.4535 10.671 28.4535 10.4864C28.4535 10.3018 28.3489 10.1414 28.1799 10.0314ZM24.7597 14.8904C24.546 14.855 24.3418 14.7914 24.2054 14.6797C24.1568 14.6399 24.1185 14.5938 24.0956 14.5348C24.069 14.4662 24.0581 14.374 24.0683 14.2475C24.0687 14.2431 24.0689 14.2388 24.069 14.2344L24.0758 14.1604C24.0929 13.9732 24.1149 13.734 24.149 13.4459C24.1494 13.4419 24.1498 13.4379 24.15 13.4339C24.1741 13.251 24.1941 13.1107 24.2126 12.9926C24.2307 12.877 24.2492 12.7728 24.2699 12.6627C24.4172 11.8807 24.6313 11.0632 24.9679 10.3017C25.2665 9.62603 25.6621 8.99482 26.1937 8.47334C25.7992 9.13107 25.5129 9.91528 25.3057 10.727C24.9828 11.9917 24.851 13.329 24.8001 14.3504C24.7987 14.3793 24.7877 14.5228 24.7762 14.6729C24.7705 14.7473 24.7646 14.8233 24.7597 14.8904ZM31.1187 14.6797C30.9797 14.7936 30.7702 14.8575 30.552 14.8925C30.504 13.8483 30.3663 12.3275 30.0287 10.9079C29.8167 10.0163 29.5248 9.16076 29.1251 8.47856C29.6652 9.02502 30.0728 9.69316 30.38 10.4031C30.8404 11.4673 31.0767 12.6286 31.1956 13.6205C31.2104 13.7442 31.2274 13.93 31.2428 14.0996L31.2552 14.2344C31.2552 14.2387 31.2554 14.2431 31.2558 14.2475C31.266 14.3741 31.2552 14.4662 31.2285 14.5348C31.2056 14.5938 31.1673 14.6399 31.1187 14.6797ZM28.3505 6.44175L27.8903 6.75859C27.82 6.75679 27.7327 6.75586 27.6199 6.75586C27.5372 6.75586 27.4651 6.7568 27.4015 6.75862L26.9413 6.44175C26.9552 6.42728 26.9714 6.4122 26.9892 6.39689C27.0858 6.31422 27.2121 6.24124 27.3054 6.21699L27.6459 6.20654L27.9863 6.21699C28.0796 6.24124 28.206 6.31422 28.3025 6.39689C28.3204 6.41219 28.3366 6.42727 28.3505 6.44175ZM27.7982 5.78585L27.6517 5.78135C27.6478 5.78125 27.6439 5.78126 27.64 5.78136L27.5251 5.78488L27.2044 5.36829C27.2099 5.36164 27.2223 5.34942 27.2362 5.32738C27.2731 5.26886 27.3278 5.21076 27.383 5.16823C27.4029 5.15291 27.4211 5.14079 27.4361 5.13304L27.6459 5.12369L27.855 5.13301C27.8646 5.13816 27.8761 5.14539 27.889 5.15432C27.9472 5.19472 28.0066 5.25466 28.0471 5.31629C28.0651 5.34372 28.0793 5.36463 28.0849 5.37303L27.7982 5.78585ZM28.3358 8.10145C28.1288 8.13277 27.8837 8.15085 27.6199 8.15085C27.356 8.15085 27.1109 8.13277 26.9039 8.10145C26.6993 8.07048 26.5367 8.02818 26.4365 7.97942C26.4243 7.97349 26.4213 7.98806 26.4202 7.9842L26.4199 7.98205C26.4172 7.96016 26.4323 7.91202 26.4524 7.8541C26.4927 7.73806 26.5702 7.59028 26.6922 7.46097C26.7816 7.3661 26.8943 7.28273 27.0322 7.23294C27.0727 7.2183 27.1175 7.20648 27.1965 7.19768C27.2848 7.18785 27.4143 7.18253 27.6199 7.18253C27.8064 7.18253 27.9132 7.18431 27.9771 7.18769C28.0379 7.19092 28.0666 7.19526 28.0933 7.20079C28.2602 7.23539 28.3951 7.31635 28.5012 7.41494C28.6498 7.55314 28.7419 7.72348 28.7873 7.8541C28.8067 7.91009 28.8215 7.95703 28.82 7.9804L28.8198 7.98205C28.8189 7.98917 28.8164 7.97305 28.8033 7.97942C28.703 8.02818 28.5404 8.07048 28.3358 8.10145ZM14.3503 13.9096L13.0853 14.6548C13.1958 13.5649 13.373 12.3484 13.6506 11.1811C13.9683 9.84529 14.4163 8.57914 15.0441 7.65519C15.1532 7.68136 15.2727 7.70437 15.4007 7.72374C15.7088 7.77036 16.0701 7.79725 16.4553 7.79725C16.8406 7.79725 17.2019 7.77036 17.51 7.72374C17.602 7.70982 17.6896 7.69401 17.7721 7.67651C18.3893 8.58605 18.8253 9.73804 19.1325 10.9415C19.4503 12.1864 19.6301 13.4832 19.7302 14.6262L18.5136 13.9096C18.2414 13.6973 17.9067 13.5392 17.5408 13.4349C17.19 13.3348 16.8104 13.2848 16.432 13.2848C16.0535 13.2848 15.674 13.3348 15.3231 13.4349C14.9573 13.5392 14.6226 13.6974 14.3503 13.9096ZM13.071 15.1565L13.7321 14.7671C13.679 14.9328 13.6503 15.1123 13.6503 15.3059V16.6376L13.6107 16.6393C13.4794 16.6451 13.229 16.656 12.9416 16.6434C12.9601 16.2109 12.9902 15.7126 13.0367 15.1727C13.0484 15.1684 13.0599 15.163 13.071 15.1565ZM19.2136 15.3059C19.2136 15.1123 19.1849 14.9328 19.1318 14.7671L19.7711 15.1436C19.7871 15.3707 19.8001 15.5897 19.8105 15.7988C19.8144 15.8779 19.8285 16.0618 19.8433 16.2541C19.854 16.3939 19.865 16.5381 19.8726 16.6425C19.5974 16.6555 19.3541 16.6466 19.2136 16.6406V15.3059ZM18.3924 12.5293C18.5102 12.5293 18.6057 12.4338 18.6057 12.316C18.6057 12.1982 18.5102 12.1026 18.3924 12.1026H14.3884C14.2706 12.1026 14.1751 12.1982 14.1751 12.316C14.1751 12.4338 14.2706 12.5293 14.3884 12.5293H18.3924ZM16.4291 9.73912C16.1606 9.73912 15.9137 9.81242 15.7317 9.93094C15.5226 10.067 15.3933 10.2634 15.3933 10.4879C15.3933 10.7123 15.5226 10.9087 15.7317 11.0448C15.9137 11.1633 16.1606 11.2366 16.4291 11.2366C16.6976 11.2366 16.9445 11.1633 17.1265 11.0448C17.3356 10.9087 17.4649 10.7123 17.4649 10.4879C17.4649 10.2634 17.3356 10.067 17.1265 9.93094C16.9445 9.81242 16.6976 9.73912 16.4291 9.73912ZM15.9633 10.2876C16.079 10.2123 16.2433 10.1658 16.4291 10.1658C16.6148 10.1658 16.7792 10.2123 16.8948 10.2876C16.9834 10.3453 17.0383 10.4166 17.0383 10.4879C17.0383 10.5591 16.9834 10.6304 16.8948 10.6881C16.7792 10.7634 16.6148 10.8099 16.4291 10.8099C16.2433 10.8099 16.079 10.7634 15.9633 10.6881C15.8747 10.6304 15.8199 10.5591 15.8199 10.4879C15.8199 10.4166 15.8747 10.3453 15.9633 10.2876ZM14.7016 25.3637C14.5838 25.3637 14.4883 25.4592 14.4883 25.577C14.4883 25.6949 14.5838 25.7904 14.7016 25.7904H18.3021C18.4199 25.7904 18.5155 25.6949 18.5155 25.577C18.5155 25.4592 18.4199 25.3637 18.3021 25.3637H14.7016ZM10.6822 24.0252C10.5644 24.0252 10.4688 24.1207 10.4688 24.2385C10.4688 24.3564 10.5644 24.4519 10.6822 24.4519H22.3215C22.4394 24.4519 22.5349 24.3564 22.5349 24.2385C22.5349 24.1207 22.4394 24.0252 22.3215 24.0252H10.6822ZM6.66276 22.6867C6.54495 22.6867 6.44943 22.7822 6.44943 22.9C6.44943 23.0179 6.54495 23.1134 6.66276 23.1134H26.341C26.4588 23.1134 26.5543 23.0179 26.5543 22.9C26.5543 22.7822 26.4588 22.6867 26.341 22.6867H6.66276ZM21.1773 16.2865C20.961 16.4637 20.6311 16.5567 20.2968 16.604C20.2892 16.4958 20.2786 16.357 20.2683 16.2224C20.2527 16.0189 20.2378 15.8246 20.2355 15.7788C20.166 14.3857 19.9863 12.5617 19.5458 10.8365C19.2403 9.6395 18.8088 8.48732 18.2012 7.55208C18.2323 7.53965 18.2616 7.52684 18.2889 7.51369C19.1122 8.26466 19.7119 9.19872 20.156 10.2035C20.6192 11.2514 20.9138 12.3759 21.1163 13.4514C21.1444 13.6005 21.1696 13.7434 21.195 13.9053C21.2207 14.0696 21.2484 14.2638 21.2816 14.5162C21.2819 14.5202 21.2822 14.5243 21.2827 14.5283C21.3285 14.915 21.359 15.2478 21.3829 15.5082L21.3927 15.6151C21.3928 15.6195 21.393 15.6238 21.3934 15.6282C21.4083 15.8136 21.3915 15.9509 21.3508 16.0558C21.3138 16.1509 21.2534 16.2241 21.1773 16.2865ZM12.5176 16.6066C12.1768 16.5602 11.8383 16.4671 11.618 16.2865C11.5418 16.2241 11.4814 16.1509 11.4444 16.0558C11.4037 15.9509 11.3869 15.8136 11.4019 15.6282C11.4022 15.6239 11.4024 15.6195 11.4025 15.6152C11.408 15.5554 11.4139 15.491 11.4199 15.425C11.4414 15.1887 11.4651 14.9296 11.4845 14.7671C11.6479 13.4043 11.9729 11.8078 12.6067 10.3429C13.0704 9.27109 13.7003 8.26803 14.5544 7.47759C14.5739 7.48929 14.5947 7.50056 14.617 7.51138L14.6263 7.51586C13.9994 8.47894 13.5524 9.75066 13.2356 11.0828C12.7654 13.0599 12.5793 15.1801 12.5176 16.6066ZM16.062 5.46601L15.3413 4.96972C15.3693 4.92729 15.4148 4.87994 15.4703 4.83242C15.613 4.71024 15.8028 4.60211 15.9427 4.56782L16.4197 4.55317L16.8968 4.56782C17.0367 4.60211 17.2265 4.71024 17.3692 4.83242C17.4247 4.87994 17.4702 4.92729 17.4982 4.96972L16.7772 5.46621C16.6851 5.46327 16.579 5.46176 16.4553 5.46176C16.2867 5.46176 16.1606 5.4632 16.062 5.46601ZM16.4139 4.12799L16.1711 4.13545L15.7395 3.51421C15.7369 3.48738 15.7642 3.43291 15.8054 3.37037C15.8664 3.27753 15.9554 3.18757 16.0423 3.12726C16.0689 3.10873 16.0933 3.09426 16.114 3.085L16.4197 3.07137L16.7258 3.08502C16.7551 3.09784 16.7901 3.12005 16.8274 3.14875C16.9097 3.21212 16.9913 3.29898 17.0466 3.38678C17.0811 3.44147 17.104 3.48741 17.1035 3.50936L16.6227 4.13405L16.4256 4.12799C16.4217 4.12789 16.4178 4.12788 16.4139 4.12799ZM16.4553 7.37058C16.0906 7.37058 15.7511 7.34552 15.464 7.30207C15.1765 7.25857 14.9463 7.19825 14.802 7.12804C14.756 7.10569 14.7378 7.08783 14.7358 7.07169C14.7299 7.02545 14.753 6.94954 14.7839 6.86048C14.8493 6.67208 14.982 6.42655 15.196 6.22763C15.3505 6.08397 15.5475 5.96591 15.7919 5.91525C15.8319 5.90696 15.8744 5.90048 15.9626 5.8958C16.0537 5.89096 16.2014 5.88843 16.4553 5.88843C16.7389 5.88843 16.9188 5.89592 17.0432 5.90977C17.1584 5.9226 17.2249 5.94028 17.2859 5.96232C17.4878 6.0352 17.652 6.1565 17.7819 6.29429C17.957 6.48011 18.0687 6.69305 18.1268 6.86048C18.1577 6.94954 18.1807 7.02545 18.1749 7.07169C18.1729 7.08783 18.1547 7.10569 18.1087 7.12804C17.9644 7.19825 17.7341 7.25857 17.4467 7.30207C17.1596 7.34552 16.8201 7.37058 16.4553 7.37058Z" stroke="black" stroke-width="0.4" mask="url(#path-1-outside-1_1189_3825)"/>
</g>
<defs>
<clipPath id="clip0_1189_3825">
<rect width="32" height="26.1818" fill="white" transform="translate(0.5)"/>
</clipPath>
</defs>
</svg>
