<svg width="21" height="20" viewBox="0 0 21 20" fill="none" xmlns="http://www.w3.org/2000/svg">
<path d="M10.6 20C9.2167 20 7.9167 19.7375 6.70004 19.2125C5.48337 18.6875 4.42504 17.975 3.52504 17.075C2.62504 16.175 1.91254 15.1167 1.38754 13.9C0.862537 12.6833 0.600037 11.3833 0.600037 10C0.600037 8.6 0.862537 7.29583 1.38754 6.0875C1.91254 4.87917 2.62504 3.825 3.52504 2.925L4.92504 4.325C4.1917 5.05833 3.62087 5.90833 3.21254 6.875C2.8042 7.84167 2.60004 8.88333 2.60004 10C2.60004 12.2333 3.37504 14.125 4.92504 15.675C6.47504 17.225 8.3667 18 10.6 18C12.8334 18 14.725 17.225 16.275 15.675C17.825 14.125 18.6 12.2333 18.6 10C18.6 8.88333 18.3959 7.84167 17.9875 6.875C17.5792 5.90833 17.0084 5.05833 16.275 4.325L17.675 2.925C18.575 3.825 19.2875 4.87917 19.8125 6.0875C20.3375 7.29583 20.6 8.6 20.6 10C20.6 11.3833 20.3375 12.6833 19.8125 13.9C19.2875 15.1167 18.575 16.175 17.675 17.075C16.775 17.975 15.7167 18.6875 14.5 19.2125C13.2834 19.7375 11.9834 20 10.6 20ZM9.60004 11V0H11.6V11H9.60004Z" fill="#1C1B1F"/>
</svg>
