<?xml version="1.0" encoding="UTF-8"?>
<svg version="1.1" xmlns="http://www.w3.org/2000/svg" width="192" height="192">
<path d="M0 0 C0.66 0 1.32 0 2 0 C2.41137207 0.72251953 2.82274414 1.44503906 3.24658203 2.18945312 C10.44409858 14.82451683 17.65173491 27.45178563 25 40 C30.05633807 48.6349588 35.04607133 57.30606337 40 66 C45.53189542 75.70727014 51.11707533 85.3814461 56.75927734 95.02514648 C61.2413721 102.68884844 65.69046822 110.37122062 70.125 118.0625 C70.752854 119.15127441 71.38070801 120.24004883 72.02758789 121.36181641 C73.18269533 123.36622591 74.33546619 125.37198468 75.48535156 127.37939453 C76.42449197 129.00427092 77.37709649 130.62154117 78.35058594 132.22607422 C79.28971419 133.78499498 80.15561504 135.38779349 81 137 C80.67 137.66 80.34 138.32 80 139 C27.53 139 -24.94 139 -79 139 C-77.57181199 134.71543596 -76.48701477 131.8089992 -74.26953125 128.078125 C-73.72176025 127.14887207 -73.17398926 126.21961914 -72.60961914 125.26220703 C-72.01656982 124.26817871 -71.42352051 123.27415039 -70.8125 122.25 C-69.53580222 120.08632451 -68.25978329 117.92224834 -66.984375 115.7578125 C-66.32501953 114.64180664 -65.66566406 113.52580078 -64.98632812 112.37597656 C-61.81074644 106.9787367 -58.6862344 101.55236 -55.5625 96.125 C-54.30341652 93.94008624 -53.04430177 91.75519051 -51.78515625 89.5703125 C-51.16012207 88.48524414 -50.53508789 87.40017578 -49.89111328 86.28222656 C-46.76319852 80.85340058 -43.63141552 75.42680719 -40.5 70 C-39.24998121 67.83334417 -37.99998122 65.6666775 -36.75 63.5 C-34.25 59.16666667 -31.75 54.83333333 -29.25 50.5 C-28.6302832 49.42580811 -28.01056641 48.35161621 -27.37207031 47.24487305 C-26.13189239 45.09526366 -24.89165873 42.94568642 -23.65136719 40.79614258 C-20.7264977 35.72690788 -17.80219167 30.65735064 -14.87988281 25.5866394 C-13.50193062 23.19573403 -12.12365828 20.80501328 -10.74536133 18.41430664 C-9.77459018 16.73016037 -8.80428126 15.04574769 -7.83398438 13.36132812 C-7.24423828 12.33845703 -6.65449219 11.31558594 -6.046875 10.26171875 C-5.52963867 9.36412842 -5.01240234 8.46653809 -4.47949219 7.54174805 C-3.99125977 6.70297119 -3.50302734 5.86419434 -3 5 C-2.4834082 4.06647705 -1.96681641 3.1329541 -1.43457031 2.17114258 C-0.96116211 1.45466553 -0.48775391 0.73818848 0 0 Z " fill="#02617B" transform="translate(95,27)"/>
<path d="M0 0 C0.33 0 0.66 0 1 0 C1 30.36 1 60.72 1 92 C-7.25 96.62 -15.5 101.24 -24 106 C-32.95049417 111.22103961 -32.95049417 111.22103961 -41.89453125 116.453125 C-48.45768734 120.28065048 -55.06411586 124.02795865 -61.6875 127.75 C-62.74517578 128.34683594 -63.80285156 128.94367188 -64.89257812 129.55859375 C-66.37467773 130.38810547 -66.37467773 130.38810547 -67.88671875 131.234375 C-68.75514404 131.72131836 -69.62356934 132.20826172 -70.51831055 132.70996094 C-72.9644976 133.98154504 -75.42381049 135.02271525 -78 136 C-76.65544302 132.45565573 -75.08771656 129.19200807 -73.234375 125.88671875 C-72.68144775 124.89873291 -72.12852051 123.91074707 -71.55883789 122.89282227 C-70.96192139 121.83506592 -70.36500488 120.77730957 -69.75 119.6875 C-69.12665771 118.57882568 -68.50331543 117.47015137 -67.86108398 116.32788086 C-62.52126695 106.86059123 -57.05876975 97.46700035 -51.5625 88.08984375 C-47.8678669 81.78429581 -44.21147319 75.45705564 -40.5625 69.125 C-39.62869507 67.50476929 -39.62869507 67.50476929 -38.67602539 65.85180664 C-37.41423174 63.66203666 -36.15259466 61.47217645 -34.89111328 59.28222656 C-31.14806444 52.7857705 -27.40071384 46.29179234 -23.65161133 39.79882812 C-20.72147235 34.72305756 -17.79472623 29.6454202 -14.87988281 24.56085205 C-13.50303474 22.1595977 -12.12427308 19.75944474 -10.74536133 17.359375 C-9.77303297 15.66513397 -8.8034746 13.96930419 -7.83398438 12.2734375 C-7.24423828 11.24734375 -6.65449219 10.22125 -6.046875 9.1640625 C-5.52963867 8.26123535 -5.01240234 7.3584082 -4.47949219 6.42822266 C-3.09984271 4.16386726 -1.67874172 2.05212734 0 0 Z " fill="#38ADD7" transform="translate(95,28)"/>
<path d="M0 0 C2.48754883 1.17651367 2.48754883 1.17651367 4.95703125 2.66796875 C5.89160156 3.22419922 6.82617188 3.78042969 7.7890625 4.35351562 C8.78679687 4.95873047 9.78453125 5.56394531 10.8125 6.1875 C12.97407207 7.47465399 15.13687102 8.75974947 17.30078125 10.04296875 C18.41018066 10.70216309 19.51958008 11.36135742 20.66259766 12.04052734 C25.8944675 15.11228941 31.19492758 18.05705843 36.5 21 C46.23955271 26.41317002 55.88471333 31.97231148 65.47460938 37.64648438 C66.8909668 38.48083008 66.8909668 38.48083008 68.3359375 39.33203125 C69.16657715 39.82421143 69.9972168 40.3163916 70.85302734 40.82348633 C73.07510443 42.12424756 73.07510443 42.12424756 76 43 C75.67 43.66 75.34 44.32 75 45 C22.53 45 -29.94 45 -84 45 C-84 44.34 -84 43.68 -84 43 C-83.26354248 42.64228516 -82.52708496 42.28457031 -81.76831055 41.91601562 C-74.59819012 38.38884796 -67.67877849 34.58249418 -60.8125 30.5 C-51.25087114 24.86548218 -41.61772506 19.37922019 -31.90820312 14.00366211 C-27.17038063 11.37224786 -22.47116636 8.71083634 -17.859375 5.86328125 C-16.69523071 5.14930176 -16.69523071 5.14930176 -15.50756836 4.42089844 C-14.09546627 3.54703168 -12.6917637 2.65936387 -11.29907227 1.75488281 C-7.00117327 -0.90014667 -4.84209168 -1.19906687 0 0 Z " fill="#02829F" transform="translate(100,121)"/>
<path d="" fill="#0A6A84" transform="translate(0,0)"/>
<path d="" fill="#1E9EC4" transform="translate(0,0)"/>
<path d="" fill="#3AAED9" transform="translate(0,0)"/>
<path d="" fill="#02627C" transform="translate(0,0)"/>
<path d="" fill="#116882" transform="translate(0,0)"/>
<path d="" fill="#3AAFD9" transform="translate(0,0)"/>
<path d="" fill="#02617B" transform="translate(0,0)"/>
<path d="" fill="#39AED8" transform="translate(0,0)"/>
<path d="" fill="#04627C" transform="translate(0,0)"/>
<path d="" fill="#4CBCE7" transform="translate(0,0)"/>
<path d="" fill="#03627C" transform="translate(0,0)"/>
<path d="" fill="#38ADD7" transform="translate(0,0)"/>
<path d="" fill="#04627C" transform="translate(0,0)"/>
<path d="" fill="#3BB0DA" transform="translate(0,0)"/>
<path d="" fill="#206F8A" transform="translate(0,0)"/>
<path d="" fill="#4CBBE6" transform="translate(0,0)"/>
<path d="" fill="#02617B" transform="translate(0,0)"/>
<path d="" fill="#38ADD7" transform="translate(0,0)"/>
<path d="" fill="#106882" transform="translate(0,0)"/>
<path d="" fill="#4CBCE6" transform="translate(0,0)"/>
<path d="" fill="#02617B" transform="translate(0,0)"/>
<path d="" fill="#39AED8" transform="translate(0,0)"/>
<path d="" fill="#116881" transform="translate(0,0)"/>
<path d="" fill="#4BBBE5" transform="translate(0,0)"/>
<path d="" fill="#02617B" transform="translate(0,0)"/>
<path d="" fill="#38ADD7" transform="translate(0,0)"/>
<path d="" fill="#116882" transform="translate(0,0)"/>
<path d="" fill="#4CBBE6" transform="translate(0,0)"/>
<path d="" fill="#02617B" transform="translate(0,0)"/>
<path d="" fill="#02627C" transform="translate(0,0)"/>
<path d="" fill="#38ADD7" transform="translate(0,0)"/>
<path d="" fill="#4BBCE6" transform="translate(0,0)"/>
<path d="" fill="#02627C" transform="translate(0,0)"/>
<path d="" fill="#39AED8" transform="translate(0,0)"/>
<path d="" fill="#04627C" transform="translate(0,0)"/>
<path d="" fill="#38ADD7" transform="translate(0,0)"/>
<path d="" fill="#02627C" transform="translate(0,0)"/>
<path d="" fill="#39AED8" transform="translate(0,0)"/>
<path d="" fill="#116882" transform="translate(0,0)"/>
<path d="" fill="#3BAFD9" transform="translate(0,0)"/>
<path d="" fill="#03627C" transform="translate(0,0)"/>
<path d="" fill="#39AED7" transform="translate(0,0)"/>
<path d="" fill="#3BB0DA" transform="translate(0,0)"/>
<path d="" fill="#03617B" transform="translate(0,0)"/>
<path d="" fill="#116882" transform="translate(0,0)"/>
<path d="" fill="#39AED8" transform="translate(0,0)"/>
<path d="" fill="#02627C" transform="translate(0,0)"/>
<path d="" fill="#38ADD7" transform="translate(0,0)"/>
<path d="" fill="#04627C" transform="translate(0,0)"/>
<path d="" fill="#4CBCE7" transform="translate(0,0)"/>
<path d="" fill="#04627C" transform="translate(0,0)"/>
<path d="" fill="#39AED7" transform="translate(0,0)"/>
<path d="" fill="#04627C" transform="translate(0,0)"/>
<path d="" fill="#3BB0DA" transform="translate(0,0)"/>
<path d="" fill="#116882" transform="translate(0,0)"/>
<path d="" fill="#3BB0DA" transform="translate(0,0)"/>
<path d="" fill="#3BB0DA" transform="translate(0,0)"/>
<path d="" fill="#03627B" transform="translate(0,0)"/>
<path d="" fill="#116882" transform="translate(0,0)"/>
<path d="" fill="#5BC8F3" transform="translate(0,0)"/>
<path d="" fill="#02627B" transform="translate(0,0)"/>
<path d="" fill="#39AED8" transform="translate(0,0)"/>
<path d="" fill="#116882" transform="translate(0,0)"/>
<path d="" fill="#4BBBE6" transform="translate(0,0)"/>
<path d="" fill="#02627B" transform="translate(0,0)"/>
<path d="" fill="#38ADD7" transform="translate(0,0)"/>
<path d="" fill="#106882" transform="translate(0,0)"/>
<path d="" fill="#4CBBE6" transform="translate(0,0)"/>
<path d="" fill="#02617B" transform="translate(0,0)"/>
<path d="" fill="#03627C" transform="translate(0,0)"/>
<path d="" fill="#38ADD8" transform="translate(0,0)"/>
<path d="" fill="#4CBBE6" transform="translate(0,0)"/>
<path d="" fill="#03627C" transform="translate(0,0)"/>
<path d="" fill="#38ADD8" transform="translate(0,0)"/>
<path d="" fill="#04627C" transform="translate(0,0)"/>
<path d="" fill="#38ADD7" transform="translate(0,0)"/>
<path d="" fill="#2C92B5" transform="translate(0,0)"/>
<path d="" fill="#116D8C" transform="translate(0,0)"/>
<path d="M0 0 C2 1 2 1 2 1 Z " fill="#248BAD" transform="translate(95,25)"/>
<path d="" fill="#187F9B" transform="translate(0,0)"/>
<path d="" fill="#207A96" transform="translate(0,0)"/>
<path d="" fill="#4BB7DD" transform="translate(0,0)"/>
<path d="" fill="#03617B" transform="translate(0,0)"/>
<path d="" fill="#03627C" transform="translate(0,0)"/>
<path d="" fill="#38ADD8" transform="translate(0,0)"/>
<path d="" fill="#39AED8" transform="translate(0,0)"/>
<path d="" fill="#03617B" transform="translate(0,0)"/>
<path d="" fill="#39AED8" transform="translate(0,0)"/>
<path d="" fill="#03627C" transform="translate(0,0)"/>
<path d="" fill="#38AED7" transform="translate(0,0)"/>
<path d="" fill="#03627C" transform="translate(0,0)"/>
<path d="" fill="#38ADD8" transform="translate(0,0)"/>
<path d="" fill="#02627B" transform="translate(0,0)"/>
<path d="" fill="#39ADD8" transform="translate(0,0)"/>
<path d="" fill="#03627B" transform="translate(0,0)"/>
<path d="" fill="#38ADD8" transform="translate(0,0)"/>
<path d="" fill="#186B85" transform="translate(0,0)"/>
<path d="" fill="#38ADD8" transform="translate(0,0)"/>
<path d="" fill="#03627C" transform="translate(0,0)"/>
<path d="" fill="#39AED8" transform="translate(0,0)"/>
<path d="" fill="#03627C" transform="translate(0,0)"/>
<path d="" fill="#39AED8" transform="translate(0,0)"/>
<path d="" fill="#03627C" transform="translate(0,0)"/>
<path d="" fill="#38AED8" transform="translate(0,0)"/>
<path d="" fill="#03627B" transform="translate(0,0)"/>
<path d="" fill="#39AED8" transform="translate(0,0)"/>
<path d="" fill="#03627C" transform="translate(0,0)"/>
<path d="" fill="#38AED7" transform="translate(0,0)"/>
<path d="" fill="#03627B" transform="translate(0,0)"/>
<path d="" fill="#38ADD7" transform="translate(0,0)"/>
<path d="" fill="#03627C" transform="translate(0,0)"/>
<path d="" fill="#39AED7" transform="translate(0,0)"/>
<path d="" fill="#39AED7" transform="translate(0,0)"/>
<path d="" fill="#03627C" transform="translate(0,0)"/>
<path d="" fill="#03627C" transform="translate(0,0)"/>
<path d="" fill="#39AED8" transform="translate(0,0)"/>
<path d="" fill="#03617B" transform="translate(0,0)"/>
<path d="" fill="#39AED8" transform="translate(0,0)"/>
<path d="" fill="#03627B" transform="translate(0,0)"/>
<path d="" fill="#38AED7" transform="translate(0,0)"/>
<path d="" fill="#03617C" transform="translate(0,0)"/>
<path d="" fill="#39AED8" transform="translate(0,0)"/>
<path d="" fill="#03627B" transform="translate(0,0)"/>
<path d="" fill="#39AED8" transform="translate(0,0)"/>
<path d="" fill="#03627B" transform="translate(0,0)"/>
<path d="" fill="#03627C" transform="translate(0,0)"/>
<path d="" fill="#39AED8" transform="translate(0,0)"/>
<path d="" fill="#38AED8" transform="translate(0,0)"/>
<path d="" fill="#03627C" transform="translate(0,0)"/>
<path d="" fill="#39ADD8" transform="translate(0,0)"/>
<path d="" fill="#02627C" transform="translate(0,0)"/>
<path d="" fill="#39AED8" transform="translate(0,0)"/>
<path d="" fill="#02617B" transform="translate(0,0)"/>
<path d="" fill="#39AED7" transform="translate(0,0)"/>
<path d="" fill="#03617B" transform="translate(0,0)"/>
<path d="" fill="#39AED8" transform="translate(0,0)"/>
<path d="" fill="#03627C" transform="translate(0,0)"/>
<path d="" fill="#39ADD8" transform="translate(0,0)"/>
<path d="" fill="#03627B" transform="translate(0,0)"/>
<path d="" fill="#39ADD7" transform="translate(0,0)"/>
<path d="" fill="#04627D" transform="translate(0,0)"/>
<path d="" fill="#03627C" transform="translate(0,0)"/>
<path d="" fill="#39AED8" transform="translate(0,0)"/>
<path d="" fill="#52C1EC" transform="translate(0,0)"/>
<path d="" fill="#06637D" transform="translate(0,0)"/>
<path d="" fill="#39AED8" transform="translate(0,0)"/>
<path d="" fill="#03617B" transform="translate(0,0)"/>
<path d="" fill="#39ADD8" transform="translate(0,0)"/>
<path d="" fill="#06637D" transform="translate(0,0)"/>
<path d="" fill="#38AED8" transform="translate(0,0)"/>
<path d="" fill="#186B85" transform="translate(0,0)"/>
<path d="" fill="#39AED8" transform="translate(0,0)"/>
<path d="" fill="#03627C" transform="translate(0,0)"/>
<path d="" fill="#38AED7" transform="translate(0,0)"/>
<path d="" fill="#39AED8" transform="translate(0,0)"/>
<path d="" fill="#03627B" transform="translate(0,0)"/>
<path d="" fill="#03627C" transform="translate(0,0)"/>
<path d="" fill="#39AED8" transform="translate(0,0)"/>
<path d="" fill="#03627C" transform="translate(0,0)"/>
<path d="" fill="#39AED8" transform="translate(0,0)"/>
<path d="" fill="#00607A" transform="translate(0,0)"/>
<path d="" fill="#39AED8" transform="translate(0,0)"/>
<path d="" fill="#117897" transform="translate(0,0)"/>
<path d="" fill="#2794B7" transform="translate(0,0)"/>
</svg>
